/* XPM */
static char *result[] = {
/* columns rows colors chars-per-pixel */
"64 64 8 1 ",
"  c black",
". c #733E39",
"X c #F6757A",
"o c #EAA236",
"O c #FFB74A",
"+ c #FFC772",
"@ c white",
"# c None",
/* pixels */
"################################################################",
"################################################################",
"##########################   ###################################",
"#################    #### ooo ##################################",
"################ oooo ### o+OO #################################",
"################ o++OO ###          ############################",
"################ o++++O    OOOOOOOOO ###########################",
"################# oO+++OOOO OOOOOOOOO ##########################",
"################## oO+OOO O OOOOOOOOOO #########################",
"################### ooOO  O  OOOOOOOOOO ########################",
"####################  oOOOOOOOOOOOOOOOOO #######################",
"####   ############## o  O   OOOOOOOOOOOO ######################",
"### ...    ########## oO O OOOOOO@  OOOOO ######################",
"### .......    ##### oOOOOOOOOOOO   OOOOOO #####################",
"#### ..........   ## oOOOOOOOOOOO   OOOOOOO   ##################",
"#####   ..........   oOOOOOOOOOOOOOOOOOOOOOOXX #################",
"########  .......... oOOOOOOOOOOOOOOOOOOOOOOoX #################",
"########## ........ oOOOOOOOOOOOOOOOOOO  OOOOO #################",
"######### ......... oOOOOOOOOOOOOOOOOO OOOOOOO #################",
"######   .......    oOOOOOOOOOOOOOOOOo OOOOOO  ##   ############",
"####  ......    ### oOOOOOOOOOOOOOOOOoo OOOO     XXX ###########",
"### ....... ####### ooOOOOOOOOOOOOOOOOoo OO  .. ++++ ###########",
"### ...... ####### oooOOOOOOOOOOOOOOOOOoO   ... +++++    #######",
"### ..... ####### o++oooOOOOOOOOOOOOOOOO ##     +++++ ...    ###",
"#### ... ####### oOO++++oooOOOOOOOOOOO   #####  +OOO+ ...... ###",
"##### . ####### oOOOO++++++ooOOOOOOOOO+++ ##### oOOOO   .... ###",
"###### ####### oOOOOOO+++++++ooooooo++++OO #### oOOOO ##    ####",
"############## oOOOOOOO+++++++++++++++++OOO ## oOOOOO ##########",
"############## oOOOOOOOO+++++++++++++++OOOOo   oOOOOO ##########",
"############# oOOOOOOOOOO+++++++++++++OOOOOOoo oOOOOO ##########",
"############ oOOOOOOOOOOOO+++++++++++OOOOOOOOOOOOOOOO ##########",
"############ oOOOOOOOOOOOOOO+++++++OOOOOOOOOOOOOOOOOO ##########",
"############ oOOOOOOOOOOOOOOOO+++OOOOOOOOOOOOOOOOOOOO ##########",
"############ oOOOOOOOOOOOOOOOOOOOOOOOOOOOOOOOOOOOOOO ###########",
"########### oOOOOOOOO OOOOOOOOOOOOOOOOOOOOOOOOOOOOOO ###########",
"########### oOOOOOOO oOOOOOOOOOOOOOOOOOOOOOOOOOOOOO ############",
"########### oOOOOOOO oOOOOOOOOOOOOOOOOOooOOOOOOOOOO ############",
"########### oOOOOOOO oOOOOOOOOOOOOOOOOOOoooOOOOOOO #############",
"########### oOOOOOO oOOOOOOOOOOOOOOOOOOOo  oooooo  #############",
"########### oOOOOOO oOOOOOOOOOOOOOOOOOOOOO       ###############",
"########### oOOOOOO oOOOOOOOOOOOOOOOOOOOOOO ####################",
"########### +++OOOO oOOOOOOOOOOOOOOOOOOOOOO ####################",
"############ ++++++ oOOOOOOOOOOOOOOOOOOOOOO ####################",
"############ XXXXXX oOOOOOOOOOOOOOOOOOOOOOOO ###################",
"############# XX X oOOOOOOOOOOOOOOOOOOOOOOOO ###################",
"##############  o oOOOOOOOOOOOOOOOOOOOOOOOOO ###################",
"############### ooOOOOOOOOOOOOOOOOOOOOOOOOOO ###################",
"############## ooOOOOOOOOOOOOOOOOOOOOOOOOOOO ###################",
"############## oOOOOOOOOOOOOOOOOOOOOOOOOOOOO ###################",
"############## oOOOOOOOOOOOOOOOOOOOOOOOOOOOO ###################",
"############## oOOOOOOOOOOOOOOOOOOOOOOOOOOOO ###################",
"############## oOOOOOOOOOOOOOOOOOOOOOOOOOOOO ###################",
"############### oOOOOOOOOOOOOOOOOOOOOOOOOOOO ###################",
"############### oOOOOOOOOOOOO  OOOOOOOOOOOOO ###################",
"############### oOOOOOOOOOOOO # OOOOOOOOOOOO ###################",
"############### oOOOOOOOOOOO ## OOOOOOOOOOOO ###################",
"############### oOOOOOOOOOOO ### OOOOOOOOOO ####################",
"################ oOOOOOOOOOO ### OOOOOOOOOO ####################",
"################ oOOOOOOOOO #### OOOOOOOOOO ####################",
"################ +++OOOOO+ ###### +OOOOOO+ #####################",
"################# ++++++++ ###### ++++++++ #####################",
"################# +++++++ ####### ++++++++ #####################",
"################## XXXXXX ###### XXXXXXXXXX ####################",
"##################         ######             ##################"
};
