/* XPM */
static char *result[] = {
/* columns rows colors chars-per-pixel */
"64 64 8 1 ",
"  c black",
". c #733E39",
"X c #F6757A",
"o c #EAA236",
"O c #FFB74A",
"+ c #FFC772",
"@ c white",
"# c None",
/* pixels */
"##########################   ###################################",
"#################    #### ooo ##################################",
"################ oooo ### o+OO #################################",
"################ o++OO ###          ############################",
"################ o++++O    OOOOOOOOO ###########################",
"################# oO+++OOOO OOOOOOOOO ##########################",
"################## oO+OOO O OOOOOOOOOO #########################",
"################### ooOO  O  OOOOOOOOOO ########################",
"####################  oOOOOOOOOOOOOOOOOO #######################",
"####   ############## o  O   OOOOOOOOOOOO ######################",
"### ...    ########## oO O OOOOOO@  OOOOO ######################",
"### .......    ##### oOOOOOOOOOOO   OOOOOO #####################",
"#### ..........   ## oOOOOOOOOOOO   OOOOOOO   ##################",
"#####   ..........   oOOOOOOOOOOOOOOOOOOOOOOXX #################",
"########  .......... oOOOOOOOOOOOOOOOOOOOOOOoX #################",
"########## ........ oOOOOOOOOOOOOOOOOOO  OOOOO #################",
"######### ......... oOOOOOOOOOOOOOOOOO OOOOOOO #################",
"######   .......    oOOOOOOOOOOOOOOOOo OOOOOO  ##   ############",
"####  ......    ### oOOOOOOOOOOOOOOOOoo OOOO     XXX ###########",
"### ....... ####### ooOOOOOOOOOOOOOOOOoo OO  .. ++++ ###########",
"### ...... ####### oooOOOOOOOOOOOOOOOOOoO   ... +++++    #######",
"### ..... ####### o++oooOOOOOOOOOOOOOOOO ##     +++++ ...    ###",
"#### ... ####### oOO++++oooOOOOOOOOOOO   #####  +OOO+ ...... ###",
"##### . ####### oOOOO++++++ooOOOOOOOOO+++ ##### oOOOO   .... ###",
"###### ####### oOOOOOO+++++++ooooooo++++OO #### oOOOO ##    ####",
"############## oOOOOOOO+++++++++++++++++OOO ## oOOOOO ##########",
"############## oOOOOOOOO+++++++++++++++OOOOo   oOOOOO ##########",
"############# oOOOOOOOOOO+++++++++++++OOOOOOoo oOOOOO ##########",
"############# oOOOOOOOOOOO+++++++++++OOOOOOOOOOOOOOOO ##########",
"############# oOOOOOOOOOOOOO+++++++OOOOOOOOOOOOOOOOOO ##########",
"############# oOOOOOOO OOOOOOO+++OOOOOOOOOOOOOOOOOOOO ##########",
"############## oOOOOOO OOOOOOOOOOOOOOOOOOOOOOOOOOOOO ###########",
"############## oOOOOOOO OOOOOOOOOOOOOOOOOOOOOOOOOOOO ###########",
"############## oOOOOOOOO OOOOOOOOOOOOOOOOOOOOOOOOOO ############",
"############### oOOOOOOOO OOOOOOOOOOOOOooOOOOOOOOOO ############",
"################ oOOOOOOO+  OOOOOOOOOOOOoooOOOOOOO #############",
"################  oOOOOOO+++  OOOOOOOOOOo  oooooo  #############",
"################ o ooOOOO+++XX OOOOOOOOOO        ###############",
"############### oOO  oOO++++XX OOOOOOOOOOO #####################",
"############### oOOOO oO++++X OOOOOOOOOOOO #####################",
"############### oOOOOO o++++X OOOOOOOOOOOO #####################",
"############### ooOOOOO        OOOOOOOOOOO #####################",
"################ oOOOOOOOOOOOOO  OOOOOOOOO #####################",
"################ oOOOOOOOOOOOOOOO OOOOOOOO #####################",
"################ oOOOOOOOOOOOOOOOO  OOOOO ######################",
"################ oOOOOOOOOOOOOOOOOOO OOOO ######################",
"################ oOOOOOOOOOOOOOOOOOOO OOO ######################",
"################  oOOOOOOOOOOOOOOOOOO OO #######################",
"################ o oOOOOOOOOOOOOOOOOOO O #######################",
"################ oO oOOOOOOOOOOOOOOOOO  ########################",
"############### oOOO ooOOOOOOOOOOOOOOOO ########################",
"############### oOOOO  oOOOOOOOOOOOOOOO ########################",
"############## oOOOOOOO oOOOOOOOOOOOOOO ########################",
"############# +oOOOOOOOO ooOOOOOOOOOOOOO #######################",
"############ +++OOOOOOOOO  ooooOOOOOOOOO #######################",
"########### X+++OOOOOOOOOO     oooOOOOOO+ ######################",
"########### X++++OOOOOOOO  ####   ooOOO+++     #################",
"############ X+++OOOOOO  #########  o+++++XX  ##################",
"############ X++++OOO  ############# ++++XX ####################",
"############# X++++  ################  XXX #####################",
"############# X    #################### X ######################",
"#############  ######################### #######################",
"############## #################################################",
"################################################################"
};
