/* XPM */
static char *result[] = {
/* columns rows colors chars-per-pixel */
"64 64 8 1 ",
"  c black",
". c #733E39",
"X c #F6757A",
"o c #EAA236",
"O c #FFB74A",
"+ c #FFC772",
"@ c white",
"# c None",
/* pixels */
"################################################################",
"###################################   ##########################",
"################################## ooo ####    #################",
"################################# OO+o ### oooo ################",
"############################          ### OO++o ################",
"########################### OOOOOOOOO    O++++o ################",
"########################## OOOOOOOOO OOOO+++Oo #################",
"######################### OOOOOOOOOO O OOO+Oo ##################",
"######################## OOOOOOOOOO  O  OOoo ###################",
"####################### OOOOOOOOOOOOOOOOOo  ####################",
"###################### OOOOOOOOOOOO   O  o ##############   ####",
"###################### OOOOO  @OOOOOO O Oo ##########    ... ###",
"##################### OOOOOO   OOOOOOOOOOOo #####    ....... ###",
"##################   OOOOOOO   OOOOOOOOOOOo ##   .......... ####",
"################# XXOOOOOOOOOOOOOOOOOOOOOOo   ..........   #####",
"################# XoOOOOOOOOOOOOOOOOOOOOOOo ..........  ########",
"################# OOOOO  OOOOOOOOOOOOOOOOOOo ........ ##########",
"################# OOOOOOO OOOOOOOOOOOOOOOOOo ......... #########",
"############   ##  OOOOOO oOOOOOOOOOOOOOOOOo    .......   ######",
"########### XXX     OOOO ooOOOOOOOOOOOOOOOOo ###    ......  ####",
"########### ++++ ..  OO ooOOOOOOOOOOOOOOOOoo ####### ....... ###",
"#######    +++++ ...   OoOOOOOOOOOOOOOOOOOooo ####### ...... ###",
"###    ... +++++     ## OOOOOOOOOOOOOOOOooo++o ####### ..... ###",
"### ...... +OOO+  #####   OOOOOOOOOOOooo++++OOo ####### ... ####",
"### ....   OOOOo ##### +++OOOOOOOOOoo++++++OOOOo ####### . #####",
"####    ## OOOOo #### OO++++ooooooo+++++++OOOOOOo ####### ######",
"########## OOOOOo ## OOO+++++++++++++++++OOOOOOOOo #############",
"########## OOOOOo   oOOOO+++++++++++++++OOOOOOOOOOo ############",
"########## OOOOOo ooOOOOOO+++++++++++++OOOOOOOOOOOOo ###########",
"########## OOOOOOOOOOOOOOOO+++++++++++OOOOOOOOOOOOOo ###########",
"########## OOOOOOOOOOOOOOOOOO+++++++OOOOOOOOOOOOOOOo ###########",
"########## OOOOOOOOOOOOOOOOOOOO+++OOOOOOOOOOOOOOOOOOo ##########",
"########### OOOOOOOOOOOOOOOOOOOOOOOOOOOOOOOOOOOOOOOOo ##########",
"########### OOOOOOOOOOOOOOOOOOOOOOOOOOOOOO OOOOOOOOOo ##########",
"############ OOOOOOOOOOOOOOOOOOOOOOOOOOOOOo OOOOOOOOOo #########",
"############ OOOOOOOOOOooOOOOOOOOOOOOOOOOOOo OOOOOOOOo #########",
"############# OOOOOOOoooOOOOOOOOOOOOOOOOOOOo OOOOOOOOo #########",
"#############  oooooo  oOOOOOOOOOOOOOOOOOOOOo OOOOOOOo #########",
"###############      ooOOOOOOOOOOOOOOOOOOOOOo OOOOOOOo #########",
"#################### oOOOOOOOOOOOOOOOOOOOOOOOo +OOOOOo #########",
"#################### oOOOOOOOOOOOOOOOOOOOOOOOo +++++++ #########",
"#################### oOOOOOOOOOOOOOOOOOOOOOOOOo +++++ ##########",
"################### oOOOOOOOOOOOOOOOOOOOOOOOOOoo +XXX ##########",
"################### oOOOOOOOOOOOOOOOOOOOOOOOOOOoo XX ###########",
"################### oOOOOOOOOOOOOOOOOOOOOOOOOOOo    ############",
"################### oOOOOOOOOOOOOOOOOOOOOOOOOOOo ###############",
"################### oOOOOOOOOOOOOOOOOOOOOOOOOOOo ###############",
"################## oOOOOOOOOOOOOOOOOOOOOOOOOOOOOo ##############",
"################## oOOOOOOOOOOOOOOOOOOOOOOOOOOOOOo #############",
"################## oOOOOOOOOOOOOOOOOOOOOOOOOOOOOOoo ############",
"################# oOOOOOOOOOOOOOOOOOOOOOOOOOOOOOOOoo ###########",
"################# oOOOOOOOOOOOOOOOOOOOOOOOOOOOOOOOOo ###########",
"################# oOOOOOOOOOOOOO    OOOOOOOOOOOOOO++X ##########",
"################# oOOOOOOOOOOOO ####  OOOOOOOOOOOO++X ##########",
"################ oOOOOOOOOOOOO #######  OOOOOOOOOO++X ##########",
"################ oOOOOOOOOOOO ########## OOOOOOOO++X ###########",
"############### ooOOOOOOOOOO ############  OOOOO++X ############",
"############## ++++OOOOOOOO ###############  OO+++X ############",
"#############  X++++++++++ ##################   +X #############",
"############### XXX++++++ ###################### X #############",
"################   XXXXX #######################  ##############",
"###################     ######################### ##############",
"################################################################",
"################################################################"
};
