/* XPM */
static char *result[] = {
/* columns rows colors chars-per-pixel */
"64 64 8 1 ",
"  c black",
". c #733E39",
"X c #F6757A",
"o c #EAA236",
"O c #FFB74A",
"+ c #FFC772",
"@ c white",
"# c None",
/* pixels */
"################################################################",
"################################################################",
"###################################   ##########################",
"################################## ooo ####    #################",
"################################# OO+o ### oooo ################",
"############################          ### OO++o ################",
"########################### OOOOOOOOO    O++++o ################",
"########################## OOOOOOOOO OOOO+++Oo #################",
"######################### OOOOOOOOOO O OOO+Oo ##################",
"######################## OOOOOOOOOO  O  OOoo ###################",
"####################### OOOOOOOOOOOOOOOOOo  ####################",
"###################### OOOOOOOOOOOO   O  o ##############   ####",
"###################### OOOOO  @OOOOOO O Oo ##########    ... ###",
"##################### OOOOOO   OOOOOOOOOOOo #####    ....... ###",
"##################   OOOOOOO   OOOOOOOOOOOo ##   .......... ####",
"################# XXOOOOOOOOOOOOOOOOOOOOOOo   ..........   #####",
"################# XoOOOOOOOOOOOOOOOOOOOOOOo ..........  ########",
"################# OOOOO  OOOOOOOOOOOOOOOOOOo ........ ##########",
"################# OOOOOOO OOOOOOOOOOOOOOOOOo ......... #########",
"############   ##  OOOOOO oOOOOOOOOOOOOOOOOo    .......   ######",
"########### XXX     OOOO ooOOOOOOOOOOOOOOOOo ###    ......  ####",
"########### ++++ ..  OO ooOOOOOOOOOOOOOOOOoo ####### ....... ###",
"#######    +++++ ...   OoOOOOOOOOOOOOOOOOOooo ####### ...... ###",
"###    ... +++++     ## OOOOOOOOOOOOOOOOooo++o ####### ..... ###",
"### ...... +OOO+  #####   OOOOOOOOOOOooo++++OOo ####### ... ####",
"### ....   OOOOo ##### +++OOOOOOOOOoo++++++OOOOo ####### . #####",
"####    ## OOOOo #### OO++++ooooooo+++++++OOOOOOo ####### ######",
"########## OOOOOo ## OOO+++++++++++++++++OOOOOOOo ##############",
"########## OOOOOo   oOOOO+++++++++++++++OOOOOOOOo ##############",
"########## OOOOOo ooOOOOOO+++++++++++++OOOOOOOOOOo #############",
"########## OOOOOOOOOOOOOOOO+++++++++++OOOOOOOOOOOOo ############",
"########## OOOOOOOOOOOOOOOOOO+++++++OOOOOOOOOOOOOOo ############",
"########## OOOOOOOOOOOOOOOOOOOO+++OOOOOOOOOOOOOOOOo ############",
"########### OOOOOOOOOOOOOOOOOOOOOOOOOOOOOOOOOOOOOOo ############",
"########### OOOOOOOOOOOOOOOOOOOOOOOOOOOOOO OOOOOOOOo ###########",
"############ OOOOOOOOOOOOOOOOOOOOOOOOOOOOOo OOOOOOOo ###########",
"############ OOOOOOOOOOooOOOOOOOOOOOOOOOOOo OOOOOOOo ###########",
"############# OOOOOOOoooOOOOOOOOOOOOOOOOOOo OOOOOOOo ###########",
"#############  oooooo  oOOOOOOOOOOOOOOOOOOOo OOOOOOo ###########",
"###############       OOOOOOOOOOOOOOOOOOOOOo OOOOOOo ###########",
"#################### OOOOOOOOOOOOOOOOOOOOOOo OOOOOOo ###########",
"#################### OOOOOOOOOOOOOOOOOOOOOOo OOOO+++ ###########",
"#################### OOOOOOOOOOOOOOOOOOOOOOo ++++++ ############",
"################### OOOOOOOOOOOOOOOOOOOOOOOo XXXXXX ############",
"################### OOOOOOOOOOOOOOOOOOOOOOOOo X XX #############",
"################### OOOOOOOOOOOOOOOOOOOOOOOOOo o  ##############",
"################### OOOOOOOOOOOOOOOOOOOOOOOOOOoo ###############",
"################### OOOOOOOOOOOOOOOOOOOOOOOOOOOoo ##############",
"################### OOOOOOOOOOOOOOOOOOOOOOOOOOOOo ##############",
"################### OOOOOOOOOOOOOOOOOOOOOOOOOOOOo ##############",
"################### OOOOOOOOOOOOOOOOOOOOOOOOOOOOo ##############",
"################### OOOOOOOOOOOOOOOOOOOOOOOOOOOOo ##############",
"################### OOOOOOOOOOOOOOOOOOOOOOOOOOOo ###############",
"################### OOOOOOOOOOOOO  OOOOOOOOOOOOo ###############",
"################### OOOOOOOOOOOO # OOOOOOOOOOOOo ###############",
"################### OOOOOOOOOOOO ## OOOOOOOOOOOo ###############",
"#################### OOOOOOOOOO ### OOOOOOOOOOOo ###############",
"#################### OOOOOOOOOO ### OOOOOOOOOOo ################",
"#################### OOOOOOOOOO #### OOOOOOOOOo ################",
"##################### +OOOOOO+ ###### +OOOOO+++ ################",
"##################### ++++++++ ###### ++++++++ #################",
"##################### ++++++++ ####### +++++++ #################",
"#################### XXXXXXXXXX ###### XXXXXX ##################",
"##################             ######         ##################"
};
