/* XPM */
static char *result[] = {
/* columns rows colors chars-per-pixel */
"64 64 8 1 ",
"  c black",
". c #733E39",
"X c #F6757A",
"o c #EAA236",
"O c #FFB74A",
"+ c #FFC772",
"@ c white",
"# c None",
/* pixels */
"##########################   ###################################",
"#################    #### ooo ##################################",
"################ oooo ### o+OO #################################",
"################ o++OO ###          ############################",
"################ o++++O    OOOOOOOOO ###########################",
"################# oO+++OOOO OOOOOOOOO ##########################",
"################## oO+OOO O OOOOOOOOOO #########################",
"################### ooOO  O  OOOOOOOOOO ########################",
"####################  oOOOOOOOOOOOOOOOOO #######################",
"####   ############## o  O   OOOOOOOOOOOO ######################",
"### ...    ########## oO O OOOOOO@  OOOOO ######################",
"### .......    ##### oOOOOOOOOOOO   OOOOOO #####################",
"#### ..........   ## oOOOOOOOOOOO   OOOOOOO   ##################",
"#####   ..........   oOOOOOOOOOOOOOOOOOOOOOOXX #################",
"########  .......... oOOOOOOOOOOOOOOOOOOOOOOoX #################",
"########## ........ oOOOOOOOOOOOOOOOOOO  OOOOO #################",
"######### ......... oOOOOOOOOOOOOOOOOO OOOOOOO #################",
"######   .......    oOOOOOOOOOOOOOOOOo OOOOOO  ##   ############",
"####  ......    ### oOOOOOOOOOOOOOOOOoo OOOO     XXX ###########",
"### ....... ####### ooOOOOOOOOOOOOOOOOoo OO  .. ++++ ###########",
"### ...... ####### oooOOOOOOOOOOOOOOOOOoO   ... +++++    #######",
"### ..... ####### o++oooOOOOOOOOOOOOOOOO ##     +++++ ...    ###",
"#### ... ####### oOO++++oooOOOOOOOOOOO   #####  +OOO+ ...... ###",
"##### . ######  oOOOO++++++ooOOOOOOOOO+++ ##### oOOOO   .... ###",
"###### ######  oOOOOOO+++++++ooooooo++++OO #### oOOOO ##    ####",
"############  oOOOOOOOO+++++++++++++++++OOO ## oOOOOO ##########",
"###########  oOOOOOOOOOO+++++++++++++++OOOOo   oOOOOO ##########",
"########## ooOOOOOOOOOOOO+++++++++++++OOOOOOoo oOOOOO ##########",
"######### oOOOOOOOOOOOOOOO+++++++++++OOOOOOOOOOOOOOOO ##########",
"#######  oOOOOOOOOOOOOOOOOOO+++++++OOOOOOOOOOOOOOOOOO ##########",
"###### ++OOOOOOOOOOOOOOOOOOOOO+++OOOOOOOOOOOOOOOOOOOO ##########",
"##### +++OOOOOOOOOOOOOOOOOOOOOOOOOOOOOOOOOOOOOOOOOOO ###########",
"#### X++++OOOOOOOOOOOOOOOOOOOOOOOOOOOOOOOOOOOOOOOOOO ###########",
"#### X++++OOOOOOOOOOOOOOOOOOOOOOOOOOOOOOOOOOOOOOOOO ############",
"##### X+++OO    OOOOOOOOOOOOOOOOOOOOOOOooOOOOOOOOOO ############",
"###### XX   #### oOOOOOOOOOOOOOOOOOOOOOOoooOOOOOOO #############",
"#######  ####### oOOOOOOOOOOOOOOOOOOOOOOo  oooooo  #############",
"################ oOOOOOOOOOOOOOOOOOOOOOOOoo      ###############",
"############### ooOOOOOOOOOOOOOOOOOOOOOOOOo ####################",
"##############  OOOOOOOOOOOOOOOOOOOOOOOOOOo ####################",
"#############  oOOOOOOOOOOOOOOOOOOOOOOOOOOo ####################",
"##########   ooOOOOOOOOOOOOOOOOOOOOOOOOOOOOO ###################",
"######    oooOOOOOOOOOOOOOOOOOOOOOOOOOOOOOOO ###################",
"##### ++ooOOOOOOOOOOOOOOOOOOOOOOOOOOOOOOOOOOO ##################",
"#### X++OOOOOOOOOOOOOOOOOOOOOOOOOOOOOOOOOOOOOO  ################",
"#### X++OOOOOOOOOOOOOOOOOOOOOOOOOOOOOOOOOOOOOOOO ###############",
"#### X++OOOOOOOOOOOOOOOOOOOOOOOOOOOOOOOOOOOOOOOOO  #############",
"#### X++OOOOOOOOOOOOOOOOOOOOOOOOOOOOOOOOOOOOOOOO+++    #########",
"#### X++OOOOOOOOOOOOOOOOOOOOOOOOOOOOOOOOOOOOOOO+++++++X ########",
"#### X++OOOOOOOOOOOOOOOOOOOOOOOOOOOOOOOOOOOOOO+++++++X #########",
"#### X+++OOOOOOOOOOOOOOOOOOOOOOOOOOOOOOOOOOOO+++++++X ##########",
"#### X+++OOOOOOO                   OOOOOOOOOO++++++X ###########",
"#### X+++O      ###################    OOOOO++++++X ############",
"#### X+    ############################    O+++++X #############",
"#####  ####################################   ++X ##############",
"##### ########################################   ###############",
"################################################################",
"################################################################",
"################################################################",
"################################################################",
"################################################################",
"################################################################",
"################################################################",
"################################################################"
};
