/* XPM */
static char *result[] = {
/* columns rows colors chars-per-pixel */
"64 64 8 1 ",
"  c black",
". c #733E39",
"X c #F6757A",
"o c #EAA236",
"O c #FFB74A",
"+ c #FFC772",
"@ c white",
"# c None",
/* pixels */
"################################################################",
"###################################   ##########################",
"################################## ooo ####    #################",
"################################# OO+o ### oooo ################",
"############################          ### OO++o ################",
"########################### OOOOOOOOO    O++++o ################",
"########################## OOOOOOOOO OOOO+++Oo #################",
"######################### OOOOOOOOOO O OOO+Oo ##################",
"######################## OOOOOOOOOO  O  OOoo ###################",
"####################### OOOOOOOOOOOOOOOOOo  ####################",
"###################### OOOOOOOOOOOO   O  o ##############   ####",
"###################### OOOOO  @OOOOOO O Oo ##########    ... ###",
"##################### OOOOOO   OOOOOOOOOOOo #####    ....... ###",
"##################   OOOOOOO   OOOOOOOOOOOo ##   .......... ####",
"################# XXOOOOOOOOOOOOOOOOOOOOOOo   ..........   #####",
"################# XoOOOOOOOOOOOOOOOOOOOOOOo ..........  ########",
"################# OOOOO  OOOOOOOOOOOOOOOOOOo ........ ##########",
"################# OOOOOOO OOOOOOOOOOOOOOOOOo ......... #########",
"############   ##  OOOOOO oOOOOOOOOOOOOOOOOo    .......   ######",
"########### XXX     OOOO ooOOOOOOOOOOOOOOOOo ###    ......  ####",
"########### ++++ ..  OO ooOOOOOOOOOOOOOOOOoo ####### ....... ###",
"#######    +++++ ...   OoOOOOOOOOOOOOOOOOOooo ####### ...... ###",
"###    ... +++++     ## OOOOOOOOOOOOOOOOooo++o ####### ..... ###",
"### ...... +OOO+  #####   OOOOOOOOOOOooo++++OOo ####### ... ####",
"### ....   OOOOo ##### +++OOOOOOOOOoo++++++OOOOo ####### . #####",
"####    ## OOOOo #### OO++++ooooooo+++++++OOOOOOo ####### ######",
"########## OOOOOo ## OOO+++++++++++++++++OOOOOOOo ##############",
"########## OOOOOo   oOOOO+++++++++++++++OOOOOOOOo ##############",
"########## OOOOOo ooOOOOOO+++++++++++++OOOOOOOOOOo #############",
"########## OOOOOOOOOOOOOOOO+++++++++++OOOOOOOOOOOo #############",
"########## OOOOOOOOOOOOOOOOOO+++++++OOOOOOOOOOOOOo #############",
"########## OOOOOOOOOOOOOOOOOOOO+++OOOOOOOOOOOOOOOo #############",
"########### OOOOOOOOOOOOOOOOOOOOOOOOOOOOOOOOOOOOOo #############",
"########### OOOOOOOOOOOOOOOOOOOOOOOOOOOOOO OOOOOOo #############",
"############ OOOOOOOOOOOOOOOOOOOOOOOOOOOOO OOOOOOo #############",
"############ OOOOOOOOOOooOOOOOOOOOOOOOOOO OOOOOOOo #############",
"############# OOOOOOOoooOOOOOOOOOOOOOOOOO OOOOOOo  #############",
"#############  oooooo  oOOOOOOOOOOOOOOOOO OOOOOOo ##############",
"###############        OOOOOOOOOOOOOOOOO OOOOOOOo ##############",
"####################  OOOOOOOOOOOOOOOOO OOOOOOOo ###############",
"####################  OOOOOOOOOOOOOOOO +OOOOOOo  ###############",
"####################  OOOOOOOOOOOOOOO +++OOOOo o ###############",
"#################### OOOOOOOOOOOOOOOO X+++OOO OOo ##############",
"#################### OOOOOOOOOOOOOOOO XX++++ OOOo ##############",
"#################### OOOOOOOOOOOOOOOO  XXX+ OOOOo ##############",
"#################### OOOOOOOOOOOOOO  OO  X OOOOOo ##############",
"#################### OOOOOOOOOOOOO OOOOOO OOOOOOo ##############",
"#################### OOOOOOOOOOOOO OOOOOOOOOOOOOo ##############",
"#################### OOOOOOOOOOOO OOOOOOOOOOOOOOo ##############",
"#################### OOOOOOOOOOOO OOOOOOOOOOOOOOo ##############",
"##################### OOOOOOOOOOO OOOOOOOOOOOOOOo ##############",
"##################### OOOOOOOOOOO OOOOOOOOOOOOOo ###############",
"##################### OOOOOOOOOOO OOOOOOOOOOOOOo ###############",
"###################### OOOOOOOOO  OOOOOOOOOOOOOo ###############",
"###################### OOOOOOOOO # OOOOOOOOOOOoo ###############",
"####################### OOOOOOO ## OOOOOOOOOOOo ################",
"####################### OOOOOO+ ## OOOOOOOOOOo #################",
"######################## OOOO++X # OOOOOOOOoo ##################",
"######################## OOOO++X # +OOOOOOo  ###################",
"######################### ++++X  # ++OOOoo #####################",
"######################### ++XX    ++++oo  ######################",
"########################## XX  # XX+++  ########################",
"###########################  #### XX+  #########################",
"##########################  ######    ##########################"
};
