/* XPM */
static char *result[] = {
/* columns rows colors chars-per-pixel */
"64 64 8 1 ",
"  c black",
". c #733E39",
"X c #F6757A",
"o c #EAA236",
"O c #FFB74A",
"+ c #FFC772",
"@ c white",
"# c None",
/* pixels */
"################################################################",
"##########################   ###################################",
"#################    #### ooo ##################################",
"################ oooo ### o+OO #################################",
"################ o++OO ###          ############################",
"################ o++++O    OOOOOOOOO ###########################",
"################# oO+++OOOO OOOOOOOOO ##########################",
"################## oO+OOO O OOOOOOOOOO #########################",
"################### ooOO  O  OOOOOOOOOO ########################",
"####################  oOOOOOOOOOOOOOOOOO #######################",
"####   ############## o  O   OOOOOOOOOOOO ######################",
"### ...    ########## oO O OOOOOO@  OOOOO ######################",
"### .......    ##### oOOOOOOOOOOO   OOOOOO #####################",
"#### ..........   ## oOOOOOOOOOOO   OOOOOOO   ##################",
"#####   ..........   oOOOOOOOOOOOOOOOOOOOOOOXX #################",
"########  .......... oOOOOOOOOOOOOOOOOOOOOOOoX #################",
"########## ........ oOOOOOOOOOOOOOOOOOO  OOOOO #################",
"######### ......... oOOOOOOOOOOOOOOOOO OOOOOOO #################",
"######   .......    oOOOOOOOOOOOOOOOOo OOOOOO  ##   ############",
"####  ......    ### oOOOOOOOOOOOOOOOOoo OOOO     XXX ###########",
"### ....... ####### ooOOOOOOOOOOOOOOOOoo OO  .. ++++ ###########",
"### ...... ####### oooOOOOOOOOOOOOOOOOOoO   ... +++++    #######",
"### ..... ####### o++oooOOOOOOOOOOOOOOOO ##     +++++ ...    ###",
"#### ... ####### oOO++++oooOOOOOOOOOOO   #####  +OOO+ ...... ###",
"##### . ####### oOOOO++++++ooOOOOOOOOO+++ ##### oOOOO   .... ###",
"###### ####### oOOOOOO+++++++ooooooo++++OO #### oOOOO ##    ####",
"############## oOOOOOOO+++++++++++++++++OOO ## oOOOOO ##########",
"############## oOOOOOOOO+++++++++++++++OOOOo   oOOOOO ##########",
"############# oOOOOOOOOOO+++++++++++++OOOOOOoo oOOOOO ##########",
"############# oOOOOOOOOOOO+++++++++++OOOOOOOOOOOOOOOO ##########",
"############# oOOOOOOOOOOOOO+++++++OOOOOOOOOOOOOOOOOO ##########",
"############# oOOOOOOOOOOOOOOO+++OOOOOOOOOOOOOOOOOOOO ##########",
"############# oOOOOOOOOOOOOOOOOOOOOOOOOOOOOOOOOOOOOO ###########",
"############# oOOOOOO OOOOOOOOOOOOOOOOOOOOOOOOOOOOOO ###########",
"############# oOOOOOO OOOOOOOOOOOOOOOOOOOOOOOOOOOOO ############",
"############# oOOOOOOO OOOOOOOOOOOOOOOOooOOOOOOOOOO ############",
"#############  oOOOOOO OOOOOOOOOOOOOOOOOoooOOOOOOO #############",
"############## oOOOOOO OOOOOOOOOOOOOOOOOo  oooooo  #############",
"############## oOOOOOOO OOOOOOOOOOOOOOOOO        ###############",
"############### oOOOOOOO OOOOOOOOOOOOOOOOO  ####################",
"###############  oOOOOOO+ OOOOOOOOOOOOOOOO  ####################",
"############### o oOOOO+++ OOOOOOOOOOOOOOO  ####################",
"############## oOO OOO+++X OOOOOOOOOOOOOOOO ####################",
"############## oOOO ++++XX OOOOOOOOOOOOOOOO ####################",
"############## oOOOO +XXX  OOOOOOOOOOOOOOOO ####################",
"############## oOOOOO X  OO  OOOOOOOOOOOOOO ####################",
"############## oOOOOOO OOOOOO OOOOOOOOOOOOO ####################",
"############## oOOOOOOOOOOOOO OOOOOOOOOOOOO ####################",
"############## oOOOOOOOOOOOOOO OOOOOOOOOOOO ####################",
"############## oOOOOOOOOOOOOOO OOOOOOOOOOOO ####################",
"############## oOOOOOOOOOOOOOO OOOOOOOOOOO #####################",
"############### oOOOOOOOOOOOOO OOOOOOOOOOO #####################",
"############### oOOOOOOOOOOOOO OOOOOOOOOOO #####################",
"############### oOOOOOOOOOOOOO  OOOOOOOOO ######################",
"############### ooOOOOOOOOOOO # OOOOOOOOO ######################",
"################ oOOOOOOOOOOO ## OOOOOOO #######################",
"################# oOOOOOOOOOO ## +OOOOOO #######################",
"################## ooOOOOOOOO # X++OOOO ########################",
"###################  oOOOOOO+ # X++OOOO ########################",
"##################### ooOOO++ #  X++++ #########################",
"######################  oo++++    XX++ #########################",
"########################  +++XX #  XX ##########################",
"#########################  +XX ####  ###########################",
"##########################    ######  ##########################"
};
