/* XPM */
static char *result[] = {
/* columns rows colors chars-per-pixel */
"64 64 8 1 ",
"  c black",
". c #733E39",
"X c #F6757A",
"o c #EAA236",
"O c #FFB74A",
"+ c #FFC772",
"@ c white",
"# c None",
/* pixels */
"###################################   ##########################",
"################################## ooo ####    #################",
"################################# OO+o ### oooo ################",
"############################          ### OO++o ################",
"########################### OOOOOOOOO    O++++o ################",
"########################## OOOOOOOOO OOOO+++Oo #################",
"######################### OOOOOOOOOO O OOO+Oo ##################",
"######################## OOOOOOOOOO  O  OOoo ###################",
"####################### OOOOOOOOOOOOOOOOOo  ####################",
"###################### OOOOOOOOOOOO   O  o ##############   ####",
"###################### OOOOO  @OOOOOO O Oo ##########    ... ###",
"##################### OOOOOO   OOOOOOOOOOOo #####    ....... ###",
"##################   OOOOOOO   OOOOOOOOOOOo ##   .......... ####",
"################# XXOOOOOOOOOOOOOOOOOOOOOOo   ..........   #####",
"################# XoOOOOOOOOOOOOOOOOOOOOOOo ..........  ########",
"################# OOOOO  OOOOOOOOOOOOOOOOOOo ........ ##########",
"################# OOOOOOO OOOOOOOOOOOOOOOOOo ......... #########",
"############   ##  OOOOOO oOOOOOOOOOOOOOOOOo    .......   ######",
"########### XXX     OOOO ooOOOOOOOOOOOOOOOOo ###    ......  ####",
"########### ++++ ..  OO ooOOOOOOOOOOOOOOOOoo ####### ....... ###",
"#######    +++++ ...   OoOOOOOOOOOOOOOOOOOooo ####### ...... ###",
"###    ... +++++     ## OOOOOOOOOOOOOOOOooo++o ####### ..... ###",
"### ...... +OOO+  #####   OOOOOOOOOOOooo++++OOo ####### ... ####",
"### ....   OOOOo ##### +++OOOOOOOOOoo++++++OOOOo ####### . #####",
"####    ## OOOOo #### OO++++ooooooo+++++++OOOOOOo ####### ######",
"########## OOOOOo ## OOO+++++++++++++++++OOOOOOOo ##############",
"########## OOOOOo   oOOOO+++++++++++++++OOOOOOOOo ##############",
"########## OOOOOo ooOOOOOO+++++++++++++OOOOOOOOOOo #############",
"########## OOOOOOOOOOOOOOOO+++++++++++OOOOOOOOOOOo #############",
"########## OOOOOOOOOOOOOOOOOO+++++++OOOOOOOOOOOOOo #############",
"########## OOOOOOOOOOOOOOOOOOOO+++OOOOOOO OOOOOOOo #############",
"########### OOOOOOOOOOOOOOOOOOOOOOOOOOOOO OOOOOOo ##############",
"########### OOOOOOOOOOOOOOOOOOOOOOOOOOOO OOOOOOOo ##############",
"############ OOOOOOOOOOOOOOOOOOOOOOOOOO OOOOOOOOo ##############",
"############ OOOOOOOOOOooOOOOOOOOOOOOO OOOOOOOOo ###############",
"############# OOOOOOOoooOOOOOOOOOOOO  +OOOOOOOo ################",
"#############  oooooo  oOOOOOOOOOO  +++OOOOOOo  ################",
"###############        OOOOOOOOOO XX+++OOOOoo o ################",
"##################### OOOOOOOOOOO XX++++OOo  OOo ###############",
"##################### OOOOOOOOOOOO X++++Oo OOOOo ###############",
"##################### OOOOOOOOOOOO X++++o OOOOOo ###############",
"##################### OOOOOOOOOOO        OOOOOoo ###############",
"##################### OOOOOOOOO  OOOOOOOOOOOOOo ################",
"##################### OOOOOOOO OOOOOOOOOOOOOOOo ################",
"###################### OOOOO  OOOOOOOOOOOOOOOOo ################",
"###################### OOOO OOOOOOOOOOOOOOOOOOo ################",
"###################### OOO OOOOOOOOOOOOOOOOOOOo ################",
"####################### OO OOOOOOOOOOOOOOOOOOo  ################",
"####################### O OOOOOOOOOOOOOOOOOOo o ################",
"########################  OOOOOOOOOOOOOOOOOo Oo ################",
"######################## OOOOOOOOOOOOOOOOoo OOOo ###############",
"######################## OOOOOOOOOOOOOOOo  OOOOo ###############",
"######################## OOOOOOOOOOOOOOo OOOOOOOo ##############",
"####################### OOOOOOOOOOOOOoo OOOOOOOOo+ #############",
"####################### OOOOOOOOOoooo  OOOOOOOOO+++ ############",
"###################### +OOOOOOooo     OOOOOOOOOO+++X ###########",
"#################     +++OOOoo   ####  OOOOOOOO++++X ###########",
"##################  XX+++++o  #########  OOOOOO+++X ############",
"#################### XX++++ #############  OOO++++X ############",
"##################### XXX  ################  ++++X #############",
"###################### X ####################    X #############",
"####################### #########################  #############",
"################################################# ##############",
"################################################################"
};
