/* XPM */
static char *result[] = {
/* columns rows colors chars-per-pixel */
"64 64 8 1 ",
"  c black",
". c #733E39",
"X c #F6757A",
"o c #EAA236",
"O c #FFB74A",
"+ c #FFC772",
"@ c white",
"# c None",
/* pixels */
"###################################   ##########################",
"################################## ooo ####    #################",
"################################# OO+o ### oooo ################",
"############################          ### OO++o ################",
"########################### OOOOOOOOO    O++++o ################",
"########################## OOOOOOOOO OOOO+++Oo #################",
"######################### OOOOOOOOOO O OOO+Oo ##################",
"######################## OOOOOOOOOO  O  OOoo ###################",
"####################### OOOOOOOOOOOOOOOOOo  ####################",
"###################### OOOOOOOOOOOO   O  o ##############   ####",
"###################### OOOOO  @OOOOOO O Oo ##########    ... ###",
"##################### OOOOOO   OOOOOOOOOOOo #####    ....... ###",
"##################   OOOOOOO   OOOOOOOOOOOo ##   .......... ####",
"################# XXOOOOOOOOOOOOOOOOOOOOOOo   ..........   #####",
"################# XoOOOOOOOOOOOOOOOOOOOOOOo ..........  ########",
"################# OOOOO  OOOOOOOOOOOOOOOOOOo ........ ##########",
"################# OOOOOOO OOOOOOOOOOOOOOOOOo ......... #########",
"############   ##  OOOOOO oOOOOOOOOOOOOOOOOo    .......   ######",
"########### XXX     OOOO ooOOOOOOOOOOOOOOOOo ###    ......  ####",
"########### ++++ ..  OO ooOOOOOOOOOOOOOOOOoo ####### ....... ###",
"#######    +++++ ...   OoOOOOOOOOOOOOOOOOOooo ####### ...... ###",
"###    ... +++++     ## OOOOOOOOOOOOOOOOooo++o ####### ..... ###",
"### ...... +OOO+  #####   OOOOOOOOOOOooo++++OOo ####### ... ####",
"### ....   OOOOo ##### +++OOOOOOOOOoo++++++OOOOo  ###### . #####",
"####    ## OOOOo #### OO++++ooooooo+++++++OOOOOOo  ###### ######",
"########## OOOOOo ## OOO+++++++++++++++++OOOOOOOOo  ############",
"########## OOOOOo   oOOOO+++++++++++++++OOOOOOOOOOo  ###########",
"########## OOOOOo ooOOOOOO+++++++++++++OOOOOOOOOOOOoo ##########",
"########## OOOOOOOOOOOOOOOO+++++++++++OOOOOOOOOOOOOOOo #########",
"########## OOOOOOOOOOOOOOOOOO+++++++OOOOOOOOOOOOOOOOOOo  #######",
"########## OOOOOOOOOOOOOOOOOOOO+++OOOOOOOOOOOOOOOOOOOOO++ ######",
"########### OOOOOOOOOOOOOOOOOOOOOOOOOOOOOOOOOOOOOOOOOOO+++ #####",
"########### OOOOOOOOOOOOOOOOOOOOOOOOOOOOOOOOOOOOOOOOOO++++X ####",
"############ OOOOOOOOOOOOOOOOOOOOOOOOOOOOOOOOOOOOOOOOO++++X ####",
"############ OOOOOOOOOOooOOOOOOOOOOOOOOOOOOOOOOO    OO+++X #####",
"############# OOOOOOOoooOOOOOOOOOOOOOOOOOOOOOOo ####   XX ######",
"#############  oooooo  oOOOOOOOOOOOOOOOOOOOOOOo #######  #######",
"###############      ooOOOOOOOOOOOOOOOOOOOOOOOo ################",
"#################### oOOOOOOOOOOOOOOOOOOOOOOOOoo ###############",
"#################### oOOOOOOOOOOOOOOOOOOOOOOOOOO  ##############",
"#################### oOOOOOOOOOOOOOOOOOOOOOOOOOOo  #############",
"################### OOOOOOOOOOOOOOOOOOOOOOOOOOOOOoo   ##########",
"################### OOOOOOOOOOOOOOOOOOOOOOOOOOOOOOOooo    ######",
"################## OOOOOOOOOOOOOOOOOOOOOOOOOOOOOOOOOOOoo++ #####",
"################  OOOOOOOOOOOOOOOOOOOOOOOOOOOOOOOOOOOOOO++X ####",
"############### OOOOOOOOOOOOOOOOOOOOOOOOOOOOOOOOOOOOOOOO++X ####",
"#############  OOOOOOOOOOOOOOOOOOOOOOOOOOOOOOOOOOOOOOOOO++X ####",
"#########    +++OOOOOOOOOOOOOOOOOOOOOOOOOOOOOOOOOOOOOOOO++X ####",
"######## X+++++++OOOOOOOOOOOOOOOOOOOOOOOOOOOOOOOOOOOOOOO++X ####",
"######### X+++++++OOOOOOOOOOOOOOOOOOOOOOOOOOOOOOOOOOOOOO++X ####",
"########## X+++++++OOOOOOOOOOOOOOOOOOOOOOOOOOOOOOOOOOOO+++X ####",
"########### X++++++OOOOOOOOOO                   OOOOOOO+++X ####",
"############ X++++++OOOOO    ###################      O+++X ####",
"############# X+++++O    ############################    +X ####",
"############## X++   ####################################  #####",
"###############   ######################################## #####",
"################################################################",
"################################################################",
"################################################################",
"################################################################",
"################################################################",
"################################################################",
"################################################################",
"################################################################"
};
