/* XPM */
static char *result[] = {
/* columns rows colors chars-per-pixel */
"64 64 8 1 ",
"  c black",
". c #733E39",
"X c #F6757A",
"o c #EAA236",
"O c #FFB74A",
"+ c #FFC772",
"@ c white",
"# c None",
/* pixels */
"################################################################",
"##########################   ###################################",
"#################    #### ooo ##################################",
"################ oooo ### o+OO #################################",
"################ o++OO ###          ############################",
"################ o++++O    OOOOOOOOO ###########################",
"################# oO+++OOOO OOOOOOOOO ##########################",
"################## oO+OOO O OOOOOOOOOO #########################",
"################### ooOO  O  OOOOOOOOOO ########################",
"####################  oOOOOOOOOOOOOOOOOO #######################",
"####   ############## o  O   OOOOOOOOOOOO ######################",
"### ...    ########## oO O OOOOOO@  OOOOO ######################",
"### .......    ##### oOOOOOOOOOOO   OOOOOO #####################",
"#### ..........   ## oOOOOOOOOOOO   OOOOOOO   ##################",
"#####   ..........   oOOOOOOOOOOOOOOOOOOOOOOXX #################",
"########  .......... oOOOOOOOOOOOOOOOOOOOOOOoX #################",
"########## ........ oOOOOOOOOOOOOOOOOOO  OOOOO #################",
"######### ......... oOOOOOOOOOOOOOOOOO OOOOOOO #################",
"######   .......    oOOOOOOOOOOOOOOOOo OOOOOO  ##   ############",
"####  ......    ### oOOOOOOOOOOOOOOOOoo OOOO     XXX ###########",
"### ....... ####### ooOOOOOOOOOOOOOOOOoo OO  .. ++++ ###########",
"### ...... ####### oooOOOOOOOOOOOOOOOOOoO   ... +++++    #######",
"### ..... ####### o++oooOOOOOOOOOOOOOOOO ##     +++++ ...    ###",
"#### ... ####### oOO++++oooOOOOOOOOOOO   #####  +OOO+ ...... ###",
"##### . ####### oOOOO++++++ooOOOOOOOOO+++ ##### oOOOO   .... ###",
"###### ####### oOOOOOO+++++++ooooooo++++OO #### oOOOO ##    ####",
"############# oOOOOOOOO+++++++++++++++++OOO ## oOOOOO ##########",
"############ oOOOOOOOOOO+++++++++++++++OOOOo   oOOOOO ##########",
"########### oOOOOOOOOOOOO+++++++++++++OOOOOOoo oOOOOO ##########",
"########### oOOOOOOOOOOOOO+++++++++++OOOOOOOOOOOOOOOO ##########",
"########### oOOOOOOOOOOOOOOO+++++++OOOOOOOOOOOOOOOOOO ##########",
"########## oOOOOOOOOOOOOOOOOOO+++OOOOOOOOOOOOOOOOOOOO ##########",
"########## oOOOOOOOOOOOOOOOOOOOOOOOOOOOOOOOOOOOOOOOO ###########",
"########## oOOOOOOOOO OOOOOOOOOOOOOOOOOOOOOOOOOOOOOO ###########",
"######### oOOOOOOOOO oOOOOOOOOOOOOOOOOOOOOOOOOOOOOO ############",
"######### oOOOOOOOO oOOOOOOOOOOOOOOOOOOooOOOOOOOOOO ############",
"######### oOOOOOOOO oOOOOOOOOOOOOOOOOOOOoooOOOOOOO #############",
"######### oOOOOOOO oOOOOOOOOOOOOOOOOOOOOo  oooooo  #############",
"######### oOOOOOOO oOOOOOOOOOOOOOOOOOOOOOoo      ###############",
"######### oOOOOO+ oOOOOOOOOOOOOOOOOOOOOOOOo ####################",
"######### +++++++ oOOOOOOOOOOOOOOOOOOOOOOOo ####################",
"########## +++++ oOOOOOOOOOOOOOOOOOOOOOOOOo ####################",
"########## XXX+ ooOOOOOOOOOOOOOOOOOOOOOOOOOo ###################",
"########### XX ooOOOOOOOOOOOOOOOOOOOOOOOOOOo ###################",
"############    oOOOOOOOOOOOOOOOOOOOOOOOOOOo ###################",
"############### oOOOOOOOOOOOOOOOOOOOOOOOOOOo ###################",
"############### oOOOOOOOOOOOOOOOOOOOOOOOOOOo ###################",
"############## oOOOOOOOOOOOOOOOOOOOOOOOOOOOOo ##################",
"############# oOOOOOOOOOOOOOOOOOOOOOOOOOOOOOo ##################",
"############ ooOOOOOOOOOOOOOOOOOOOOOOOOOOOOOo ##################",
"########### ooOOOOOOOOOOOOOOOOOOOOOOOOOOOOOOOo #################",
"########### oOOOOOOOOOOOOOOOOOOOOOOOOOOOOOOOOo #################",
"########## X++OOOOOOOOOOOOOO    OOOOOOOOOOOOOo #################",
"########## X++OOOOOOOOOOOO  #### OOOOOOOOOOOOo #################",
"########## X++OOOOOOOOOO  ####### OOOOOOOOOOOOo ################",
"########### X++OOOOOOOO ########## OOOOOOOOOOOo ################",
"############ X++OOOOO  ############ OOOOOOOOOOoo ###############",
"############ X+++OO  ############### OOOOOOOO++++ ##############",
"############# X+   ################## ++++++++++X  #############",
"############# X ###################### ++++++XXX ###############",
"##############  ####################### XXXXX   ################",
"############## #########################     ###################",
"################################################################",
"################################################################"
};
