/* XPM */
static char *result[] = {
/* columns rows colors chars-per-pixel */
"64 64 9 1 ",
"  c black",
". c #3E2731",
"X c #733E39",
"o c #864E49",
"O c #FECD66",
"+ c gray62",
"@ c gray",
"# c #FFEBBD",
"$ c None",
/* pixels */
"$$$$$$$$$$$$$$$$$$$$$$$$$$$$$$$$$$$$$$$$$$$$$$$$$$$$$$$$$$$$$$$$",
"$$$$$$$$$$$$$$$$$$$$$$$$$$$$$$$$$$$$$$$$$$$$$$$$$$$$$$$$$$$$$$$$",
"$$$$$$$$$$$$$$$$$$$$$$$$$$$$$$$$$$$$$$$$$$$$$$$$$$$$$$$$$$$$$$$$",
"$$$$$$$$$$$$$$$$$$$$$$$$$$$$$$$$$$$$$$$$$$$$$$$$$$$$$$$$$$$$$$$$",
"$$$$$$$$$$$$$$$$$$$$$$$$$$$$$$$$$$$$$$$$$$$$$$$$$$$$$$$$$$$$$$$$",
"$$$$$$$$$$$$$$$$$$$$$$$$$$$$$$$$$$$$$$$$$$$$$$$$$$$$$$$$$$$$$$$$",
"$$$$$$$$$$$$$$$$$$$$$$$$$$$$$$$$$$$$$$$$$$$$$$$$$$$$$$$$$$$$$$$$",
"$$$$$$$$$$$$$$$$$$$$$$$$$$$$$$$$$$$$$$$$$$$$$$$$$$$$$$$$$$$$$$$$",
"$$$$$$$$$$$$$$$$$$$$$$$$$$$$$$$$$$$$$$$$$$$$$$$$$$$$$$$$$$$$$$$$",
"$$$$$$$$$$$$$$$$$$$$$$$$$$$$$$$$$$$$$$$$$$$$$$$$$$$$$$$$$$$$$$$$",
"$$oXXXXXXX$$$$$.X$$$$$$$$$$$$$$$$$$$$$$$$$$$$$$XOOOOOOOO$$oOOOOO",
"OOoXXXXXXX.XXXX.XOOO OOO OOOOOO OO OO O OO O OOXXOOXOOOO.XoXXOOO",
"OOOOXXXXXX.XXXX.X OO      OOO O    OOO         XXXXXXOOX.XoXXXXO",
"OOOOOXX#XX.XXXX.X O        OO                  XXXXOXXXO.XoXXXOO",
"OOOOOXX#XX.XXXX.X           OO      O          XXXXXXXXO.XoXXOOO",
"OOOOXXXXXXXXXXX.X                         O    XXXXOOXXO.XoXOOOO",
"OOOOXXX#XX.XXXX.X OO       O                   XXXXXXXXX.XoOOOOO",
"OOOOXXXXXX.XXXX.X           O       O          XXXXXOXXX.XoXOOOO",
"OOOOXXXXXX.XXXXoX  O                O          XXXXXXXXO.XoOOOOO",
"OXOOOXXXXX.XXXXoX                         O    XXXXXXXXX.XoXOOXO",
"OXOOXXXXXX.XXXXoX                   O          XXXXXOXXX.XoXXOOO",
"OOOXXXXXXX.XXXXXX          O        O          XXXXXXXXX.XoXXXXO",
"OOOO@@@@@@.@@@@o@                              @@@@@X@@..@XXXOOO",
"OXOO@@@X@@.@@@@o@                              @@@@@X@@.@@XXXOOO",
"OXOO@@@X@@@@@@@@@          O                   X@@@@@@@.@Xo@XXOO",
"OOOO@@@X@@@@@@@@@                              X@@@@@@@.@ooXXOOO",
"OOOX@@@@XXXXXXXX.                              XXXXXXXX.XooXXXOO",
"OOOX@@@@XX.XXXXX.                              XXXXXXXXXXXoXXOOO",
"OOOX@@@@XX.XXXXXX                              XXXXXXXXX.XoXXXOO",
"OOOX@@X@XX.XXXXOX                              XXXXXXOOX.XoXXOOO",
"OOOX@@X@XX.XXOOXX                              XXoXXXXXO.XoXXXXO",
"OXOX@@X@XX.XXOXXX                              XXoXXXXXX.XoXXOOO",
"OOOXX@@@XX.XXXXXX                              XXoXXXXXX.XoXXXOO",
"OOOXX@@@@@.@@@@@@                              X@oX@X@@@.@oXXXOO",
"OOOXX@@@@@@@@XO@@                              X@oX@X@@@.@oXXXXO",
"OOOX@@@X@@@@@X@@@                              X@oX@X@@@.XoXOXOO",
"OOOX@@@X@@.@@X@O@                              @@o@@@@XX.XoXXXOO",
"OOOO@@@XXX.OXXXXX                              XXoXXXXXX.XoXXXOO",
"OXOX@@@XXX.XXXXXX                              XXXXXXOXX.XoXXOOO",
"OXOOOX@@XX.XXXXXX                              XXXXXXXXXXXXXXOOO",
"OXOOO@@@XX.XXXXXX                              XXXXXXXXXXXXOOOXO",
"OXOO@X@@OX.XXX#XX                              XXoXXOXXX.XXXXXOO",
"OOOX@X@OXX.XXXX#X                              XXoXXXXXX.XoXXOOO",
"OOOX@X@@XXX.XXXXX                              XXoXXXXXX.XoXXOOO",
"OXOX@@@@XXX.XXXXX                              XXoXXXXXX.XoXXOOO",
"OOOX@@@O@@@.@@@@@                              @@o@@@@@@.@oXXXOO",
"OOOX@O@@@@@.@@@o@                              @@o@@@@@@.@oXXOOO",
"OOoX@@@X@@@.@@@o@                              @@oX@@@X@@o@@XOOO",
"OOOX@@XXX@.@@@@@@                              @@@X@@XX.@o@@XXOO",
"OOOXX@XXX@.@@@@@@                              @@@X@@XX.@o@XXXOO",
"OOoXXXXXXXX.XXXoX                              XXXXXXXX.XoXXOXXO",
"OXOOXXXXXXX.XXXoX                              XXXXXXXX.XoXXOXOO",
"OXOOXXXXXXX.XXXXX                              XXoXXXXX.XoXXXXOO",
"OOOXXXXXXXX.XXXoX                              X#oXXXXX.XOXXOOOO",
"OXOOXXXXXXXXXXXoX                              XXoXXXXX.XOoXOXOO",
"OOOXXXXXXX.XXXXoX                              XXXXXXXX.OOoXXOOO",
"OOOXXXXXXX.XXXXoX                              XXoXXXXXXOOoXXOOO",
"OOO.......XXXXXo.                              .........OXo...OO",
"OOO..............$$$$$$$$$$$$$$$$$$$$$$$$$$$$$$.............OOOO",
"OOO..............$$$$$$$$$$$$$$$$$$$$$$$$$$$$$$.............OO.O",
"O.O..............$$$$$$$$$$$$$$$$$$$$$$$$$$$$$$......+.......OOO",
"$$$$$$$$$$$$$$$$$$$$$$$$$$$$$$$$$$$$$$$$$$$$$$$$$$$$$$$$$$$$$$$$",
"$$$$$$$$$$$$$$$$$$$$$$$$$$$$$$$$$$$$$$$$$$$$$$$$$$$$$$$$$$$$$$$$",
"$$$$$$$$$$$$$$$$$$$$$$$$$$$$$$$$$$$$$$$$$$$$$$$$$$$$$$$$$$$$$$$$"
};
