/* XPM */
static char *result[] = {
/* columns rows colors chars-per-pixel */
"64 64 9 1 ",
"  c black",
". c #3E2731",
"X c #733E39",
"o c #864E49",
"O c #FECD66",
"+ c gray62",
"@ c gray",
"# c #FFEBBD",
"$ c None",
/* pixels */
"$$$$$$$$$$$$$$$$$$$$$$$$$$$$$$$$$$$$$$$$$$$$$$$$$$$$$$$$$$$$$$$$",
"$$$$$$$$$$$$$$$$$$$$$$$$$$$$$$$$$$$$$$$$$$$$$$$$$$$$$$$$$$$$$$$$",
"$$$$$$$$$$$$$$$$$$$$$$$$$$$$$$$$$$$$$$$$$$$$$$$$$$$$$$$$$$$$$$$$",
"$$$$$$$$$$$$$$$$$$$$$$$$$$$$$$$$$$$$$$$$$$$$$$$$$$$$$$$$$$$$$$$$",
"$$$$$$$$$$$$$$$$$$$$$$$$$$$$$$$$$$$$$$$$$$$$$$$$$$$$$$$$$$$$$$$$",
"$$$$$$$$$$$$$$$$$$$$$$$$$$$$$$$$$$$$$$$$$$$$$$$$$$$$$$$$$$$$$$$$",
"$$$$$$$$$$$$$$$$$$$$$$$$$$$$$$$$$$$$$$$$$$$$$$$$$$$$$$$$$$$$$$$$",
"$$$$$$$$$$$$$$$$$$$$$$$$$$$$$$$$$$$$$$$$$$$$$$$$$$$$$$$$$$$$$$$$",
"$$$$$$$$$$$$$$$$$$$$$$$$$$$$$$$$$$$$$$$$$$$$$$$$$$$$$$$$$$$$$$$$",
"$$$$$$$$$$$$$$$$$$$$$$$$$$$$$$$$$$$$$$$$$$$$$$$$$$$$$$$$$$$$$$$$",
"OX$oXXXOX$$$oXXXXXXX$$$$$.X$$$$$$$$$$XOOOOOOOO$$oOOOOOOXX$$$$oXO",
"OO.oOOOXO.XXoXXXXXXX.XXXX.XOOOO O OOOXXOOXOOOO.XoXXOOXXXX.OOOoXO",
"OOOoOOXOO.XXoXXXXXXX.XXXX.XOO        XXXXXXOOX.XoXXXXOXXX.OOOoOO",
"OOOoXOXOO.XXoXXXX#XX.XXXX.XO         XXXXOXXXO.XoXXXXOXXX.OOOoOO",
"OOOOXXXXX.XXoXXXX#XX.XXXX.X          XXXXXXXXO.XoXXXXOXXX.OOOoOO",
"OOOOXOXOX.XXoXXXXXXXXXXXX.X          XXXXOOXXO.XoXXXXXXXX.OOoXOO",
"OOOoXOXOX.XXXXXXX#XX.XXXX.X          XXXXXXXXX.XoXXXXXXXX.OOoXOO",
"OOOXXOXOX.XXXXXXXXXX.XXXX.X          XXXXXOXXX.XoXXXXXXXX.OXoOOO",
"OOOoXOXOX.XXoXXXXXXX.XXXXoX          XXXXXXXXO.XoXXXXXXXX.XOoOOO",
"OO.oXXOXX.XXoXXXXXXX.XXXXoX          XXXXXXXXX.XoXXXXXXXX.OXoXOO",
"OXOoXXXXX.XXoXXXXXXX.XXXXoX          XXXXXOXXX.XoXXXXXXX..XXoXXO",
"OOOoXOXXX.XXoXXXXXXX.XXXXXX          XXXXXXXXX.XoXXXXXXX.XXXoXXO",
"OOOXXXXXX.XXoX@@@@@@.@@@@o@          @@@@@X@@..@XXXXXXXX.XXXoXXO",
"OO.oXXXXX.XXoX@@@X@@.@@@@o@          @@@@@X@@.@@XXXXXXXX.XXoXXXO",
"OOOoXXXXX.XXXX@@@X@@@@@@@@@          X@@@@@@@.@Xo@XXXXXXXXXoXXXO",
"OOOoXOXXXXXXoX@@@X@@@@@@@@@          X@@@@@@@.@ooXXXXXXXXXXoXXOO",
"OOOOXXXXXXXXoX@@@@XXXXXXXX.          XXXXXXXX.XooXXXX#XXXXXXXOOO",
"OOOOXXXXXXXXoX@@@@XX.XXXXX.          XXXXXXXXXXXoXXXXXXX.XXXOOOO",
"OOOoXXXXXXXXoX@@@@XX.XXXXXX          XXXXXXXXX.XoXXXX#XX.XXXoXXO",
"OXOOXXXXo.XXoX@@X@XX.XXXXOX          XXXXXXOOX.XoXXXX#XX..XXoXOO",
"OXOoXXXXo.XXoX@@X@XX.XXOOXX          XXoXXXXXO.XoXXXXXXXX.XXoXOO",
"OXOOXXXXoXXXoX@@X@XX.XXOXXX          XXoXXXXXX.XoXXXXXXXXXXXooOO",
"OXOOX#XXXXXXoXX@@@XX.XXXXXX          XXoXXXXXX.XoXXXXXXXXXXXXoOO",
"OOOoXXXXXXXXoXX@@@@@.@@@@@@          X@oX@X@@@.@oXXXXX XXXXXXoXO",
"OOOoXXXXX.XXoXX@@@@@@@@XO@@          X@oX@X@@@.@oXXXXXXXXOXXXoOO",
"OO.oX#XXX.XXoX@@@X@@@@@X@@@          X@oX@X@@@.XoXOXXXXXXXXXXOOO",
"OOOOX#XXXX.XoX@@@X@@.@@X@O@          @@o@@@@XX.XoXXXXXXXXXOXOOOO",
"OO.oXXXXXX.XoX@@@XXX.OXXXXX          XXoXXXXXX.XoXXXOOXXXXOXXoOO",
"OO.oXXXXXX.XoX@@@XXX.XXXXXX          XXXXXXOXX.XoXXXXXXX.XOXXOOO",
"OOXoXXXXXX.XoX@X@@XX.XXXXXX          XXXXXXXXXXXXXXXXXXX.XOXXOOO",
"OOXoXXXXXXXXoX@@@@XX.XXXXXX          XXXXXXXXXXXXXXXXXXX.XOXXoOO",
"OOXoXXXXXXOXXX@X@@OX.XXX#XX          XXoXXOXXX.XXXXXXXXX.XOXXoOO",
"OOOOXXXXX.XOOX@X@OXX.XXXX#X          XXoXXXXXX.XoXXXXXXXXoXXXoOO",
"OOOOOXXXXXXXoX@X@@XXX.XXXXX          XXoXXXXXX.XoXXXXXOXooXXXoOO",
"OX.OOXXXX.XXoX@@@@XXX.XXXXX          XXoXXXXXX.XoXXXXXXXoXXXXoOO",
"OXOOXXXXX.XXXX@@@O@@@.@@@@@          @@o@@@@@@.@oXXXXXXXoXXXXoXO",
"OOOoXXXXX.XXoX@O@@@@@.@@@o@          @@o@@@@@@.@oXXXXXXXoXXOXoXO",
"OOOoXXXXXOOXoX@@@X@@@.@@@o@          @@oX@@@X@@o@@XXXXOXXXXXXoOO",
"OOOoXXXOOOXXoX@@XXX@.@@@@@@          @@@X@@XX.@o@@XXXXOXoXXXXoOO",
"OOOoXXOOOXXXXXX@XXX@.@@@@@@          @@@X@@XX.@o@XXXXXOXoXXXXoOO",
"OOOoXXOOX.XXoXXXXXXXX.XXXoX          XXXXXXXX.XoXXOXXXXXoXXXoXOO",
"OOOoXOXXX.XXoXXXXXXXX.XXXoX          XXXXXXXX.XoXXOXXXXXoXXXoXOO",
"OOOoXXXXX.XXoXXXXXXXX.XXXXX          XXoXXXXX.XoXXXXXXOXoXXXOOOO",
"OO.oXXXXX.XXoXXXXXXXX.XXXoX          X#oXXXXX.XOXXOOXXXXoXXXOOOO",
"OOOoXXOOX.XXoXXXXXXXXXXXXoX          XXoXXXXX.XOoXOXXXXXXXXoXOOO",
"OO.oOXXXXXXXXXXXXXXX.XXXXoX          XXXXXXXX.OOoXXOXXOXXXXoXOOO",
"OO.oXXXXXXXXoXXXXXXX.XXXXoX          XXoXXXXXXOOoXXOXXOXoXXooXOO",
"OX.o.....XXXo.......XXXXXo.          .........OXo........XXXXOOO",
"O..........................$$$$$$$$$$.........................OO",
"OO.........................$$$$$$$$$$.........................OO",
"OO.........................$$$$$$$$$$......+..................OO",
"$$$$$$$$$$$$$$$$$$$$$$$$$$$$$$$$$$$$$$$$$$$$$$$$$$$$$$$$$$$$$$$$",
"$$$$$$$$$$$$$$$$$$$$$$$$$$$$$$$$$$$$$$$$$$$$$$$$$$$$$$$$$$$$$$$$",
"$$$$$$$$$$$$$$$$$$$$$$$$$$$$$$$$$$$$$$$$$$$$$$$$$$$$$$$$$$$$$$$$"
};
