/* XPM */
static char *result[] = {
/* columns rows colors chars-per-pixel */
"64 64 7 1 ",
"  c black",
". c #3E2731",
"X c #733E39",
"o c #864E49",
"O c #FECD66",
"+ c gray",
"@ c None",
/* pixels */
"@@@@@@@@@@@@@@@@@@@@@@@@@@@@@@@@@@@@@@@@@@@@@@@@@@@@@@@@@@@@@@@@",
"@@@@@@@@@@@@@@@@@@@@@@@@@@@@@@@@@@@@@@@@@@@@@@@@@@@@@@@@@@@@@@@@",
"@@@@@@@@@@@@@@@@@@@@@@@@@@@@@@@@@@@@@@@@@@@@@@@@@@@@@@@@@@@@@@@@",
"@@@@@@@@@@@@@@@@@@@@@@@@@@@@@@@@@@@@@@@@@@@@@@@@@@@@@@@@@@@@@@@@",
"@@@@@@@@@@@@@@@@@@@@@@@@@@@@@@@@@@@@@@@@@@@@@@@@@@@@@@@@@@@@@@@@",
"@@@@@@@@@@@@@@@@@@@@@@@@@@@@@@@@@@@@@@@@@@@@@@@@@@@@@@@@@@@@@@@@",
"@@@@@@@@@@@@@@@@@@@@@@@@@@@@@@@@@@@@@@@@@@@@@@@@@@@@@@@@@@@@@@@@",
"@@@@@@@@@@@@@@@@@@@@@@@@@@@@@@@@@@@@@@@@@@@@@@@@@@@@@@@@@@@@@@@@",
"@@@@@@@@@@@@@@@@@@@@@@@@@@@@@@@@@@@@@@@@@@@@@@@@@@@@@@@@@@@@@@@@",
"@@@@@@@@@@@@@@@@@@@@@@@@@@@@@@@@@@@@@@@@@@@@@@@@@@@@@@@@@@@@@@@@",
"@.X@@@@@@@@@@@@@@@@@@@@@@@@@@@@@@@@@@@@@@@@@@@@@@@@@@@@@@@@@@XOO",
"O.X    OOOO     OOOOO    OOOOOO           OO    OO   OO   O  XOO",
"OOX                                                          OOO",
"OOX                                                          OOO",
"OOO                                                          XOO",
"OOX                                                          XOO",
"OOX                                                          XOO",
"OOO                                                          XXO",
"OOX                                                          XXO",
"OOX                                                          XOO",
"OOX                                                          OXO",
"OOX                                                          OXO",
"OO+                                                          OOO",
"Oo+                                                          +OO",
"OO+                                                          O+O",
"OO+                                                          O+O",
"OO.                                                          OOO",
"OXO                                                          XOO",
"OOO                                                          XOO",
"OOX                                                          OOO",
"OXX                                                          XXO",
"OXO                                                          XXO",
"OOO                                                          OOO",
"O+O                                                          OOO",
"OO+                                                          X+O",
"OOO                                                          XOO",
"OO+                                                          +OO",
"OOX                                                          XOO",
"OOX                                                          XOO",
"OXX                                                          OXO",
"OOX                                                          OOO",
"OOX                                                          XOO",
"OOX                                                          OOO",
"OXX                                                          XOO",
"OXX                                                          OXO",
"O++                                                          OOO",
"Oo+                                                          +OO",
"Oo+                                                          OOO",
"O+O                                                          +OO",
"OOO                                                          OOO",
"OOX                                                          OXO",
"OOO                                                          OOO",
"OOO                                                          XOO",
"OOO                                                          OOO",
"OOO                                                          XOO",
"OOO                                                          XOO",
"OOX                                                          XXO",
"OO.                                                          ..O",
"O..@@@@@@@@@@@@@@@@@@@@@@@@@@@@@@@@@@@@@@@@@@@@@@@@@@@@@@@@@@..O",
"O..@@@@@@@@@@@@@@@@@@@@@@@@@@@@@@@@@@@@@@@@@@@@@@@@@@@@@@@@@@..O",
"O..@@@@@@@@@@@@@@@@@@@@@@@@@@@@@@@@@@@@@@@@@@@@@@@@@@@@@@@@@@..O",
"@@@@@@@@@@@@@@@@@@@@@@@@@@@@@@@@@@@@@@@@@@@@@@@@@@@@@@@@@@@@@@@@",
"@@@@@@@@@@@@@@@@@@@@@@@@@@@@@@@@@@@@@@@@@@@@@@@@@@@@@@@@@@@@@@@@",
"@@@@@@@@@@@@@@@@@@@@@@@@@@@@@@@@@@@@@@@@@@@@@@@@@@@@@@@@@@@@@@@@"
};
