/* XPM */
static char *result[] = {
/* columns rows colors chars-per-pixel */
"64 64 8 1 ",
"  c #3E2731",
". c #733E39",
"X c #864E49",
"o c #FECD66",
"O c gray62",
"+ c gray",
"@ c #FFEBBD",
"# c None",
/* pixels */
"################################################################",
"################################################################",
"################################################################",
"################################################################",
"################################################################",
"################################################################",
"################################################################",
"################################################################",
"################################################################",
"################################################################",
"####...#X...o.###X.......##### ..oooooooo##Xoooooo..####X.oo####",
"###X... Xooo.o ..X....... .... ...oo.oooo .X..oo.... oooX.oo ###",
"###X... Xoo.oo ..X....... .... .......oo. .X....o... oooX.oo ###",
"###X... X.o.oo ..X....@.. .... .....o...o .X....o... oooX.oo ###",
"###X... X..... ..X....@.. .... .........o .X....o... oooX..o ###",
"###X... X.o.o. ..X............ .....oo..o .X........ ooX..o  ###",
"###X....X.o.o. .......@.. .... .......... .X........ ooX..o o###",
"###X.o....o.o. .......... .... ......o... .X........ o.X..o o###",
"###X.o. X.o.o. ..X....... ....X.........o .X........ .oX..o o###",
"###X.oo X..o.. ..X....... ....X.......... .X........ o.X..ooo###",
"###Xoo.oX..... ..X....... ....X......o... .X.......  ..X...oo###",
"###Xooo X.o... ..X....... ............... .X....... ...X..ooo###",
"###Xo.o....... ..X.++++++ ++++X++++++.++  +........ ...X..ooo###",
"###Xooo X..... ..X.+++.++ ++++X++++++.++ ++........ ..X...ooo###",
"###Xoo. X..... ....+++.+++++++++.+++++++ +.X+.........X...ooo###",
"###Xo.. X.o......X.+++.+++++++++.+++++++ +XX..........X...ooo###",
"###Xo.. X........X.++++........ ........ .XX....@.........o .###",
"###X... X........X.++++.. ..... ...........X....... ...X..o .###",
"###X....X........X.++++.. ............... .X....@.. ...X... .###",
"###X... X....X ..X.++.+.. ....o.......oo. .X....@..  ..X..o .###",
"###X... X....X ..X.++.+.. ..oo....X.....o .X........ ..X..o .###",
"###X... X....X...X.++.+.. ..o.....X...... .X...........XX.o .###",
"###X... X.@......X..+++.. ........X...... .X............X.. .###",
"###X... X........X..+++++ ++++++.+X.+.+++ +X............X.. .###",
"###X... X..... ..X..++++++++.o++.+X.+.+++ +X........o...X.. .###",
"###X... X.@... ..X.+++.+++++.+++.+X.+.+++ .X.o..........X....###",
"###X... X.@.... .X.+++.++ ++.+o+++X++++.. .X.........o..X.. .###",
"###X... X...... .X.+++... o.......X...... .X...oo....o..X.. .##+",
"###X... X...... .X.+++... ............o.. .X....... .o..X.. .###",
"###X....X...... .X.+.++.. ......................... .o..X.. .###",
"###X....X........X.++++.. ......................... .o..X.. .###",
"###Xo...X......o...+.++o. ...@....X..o... ......... .o..X.. .###",
"###X.o..X..... .oo.+.+o.. ....@...X...... .X........X...X.. .###",
"###X.o. X........X.+.++... .......X...... .X.....o.XX...X.. .###",
"###X... X..... ..X.++++... .......X...... .X.......X....X.. .###",
"###Xoo. X..... ....+++o+++ +++++++X++++++ +X.......X....X.. .###",
"###X....X..... ..X.+o+++++ +++X+++X++++++ +X.......X..o.X.. .###",
"###X.o. X.....oo.X.+++.+++ +++X+++X.+++.++X++....o......X..  ###",
"###Xo.. X...ooo..X.++...+ +++++++++.++.. +X++....o.X....X... ###",
"###X... X..ooo......+...+ +++++++++.++.. +X+.....o.X....X... ###",
"###X....X..oo. ..X........ ...X......... .X..o.....X...X.... ###",
"###Xo...X.o... ..X........ ...X......... .X..o.....X...X.... ###",
"###X....X..... ..X........ .......X..... .X......o.X......o. ###",
"###Xoo. X..... ..X........ ...X..@X..... .o..oo....X........ ###",
"###X.o. X..oo. ..X............X...X..... .oX.o........X...o. ###",
"###X.o. Xo............... ....X......... ooX..o..o....X...o. ###",
"###X.oo X........X....... ....X...X......ooX..o..o.X..XX..o. ###",
"### ... X     ...X       .....X          o.X        ....X    ###",
"###                                                          ###",
"###                                                          ###",
"####                                  O                     ####",
"################################################################",
"################################################################",
"################################################################"
};
