/* XPM */
static char *result[] = {
/* columns rows colors chars-per-pixel */
"64 64 7 1 ",
"  c black",
". c #3E2731",
"X c #733E39",
"o c #864E49",
"O c #FECD66",
"+ c gray",
"@ c None",
/* pixels */
"@@@@@@@@@@@@@@@@@@@@@@@@@@@@@@@@@@@@@@@@@@@@@@@@@@@@@@@@@@@@@@@@",
"@@@@@@@@@@@@@@@@@@@@@@@@@@@@@@@@@@@@@@@@@@@@@@@@@@@@@@@@@@@@@@@@",
"@@@@@@@@@@@@@@@@@@@@@@@@@@@@@@@@@@@@@@@@@@@@@@@@@@@@@@@@@@@@@@@@",
"@@@@@@@@@@@@@@@@@@@@@@@@@@@@@@@@@@@@@@@@@@@@@@@@@@@@@@@@@@@@@@@@",
"@@@@@@@@@@@@@@@@@@@@@@@@@@@@@@@@@@@@@@@@@@@@@@@@@@@@@@@@@@@@@@@@",
"@@@@@@@@@@@@@@@@@@@@@@@@@@@@@@@@@@@@@@@@@@@@@@@@@@@@@@@@@@@@@@@@",
"@@@@@@@@@@@@@@@@@@@@@@@@@@@@@@@@@@@@@@@@@@@@@@@@@@@@@@@@@@@@@@@@",
"@@@@@@@@@@@@@@@@@@@@@@@@@@@@@@@@@@@@@@@@@@@@@@@@@@@@@@@@@@@@@@@@",
"@@@@@@@@@@@@@@@@@@@@@@@@@@@@@@@@@@@@@@@@@@@@@@@@@@@@@@@@@@@@@@@@",
"@@@@@@@@@@@@@@@@@@@@@@@@@@@@@@@@@@@@@@@@@@@@@@@@@@@@@@@@@@@@@@@@",
"@.X@@@@@@@@@@@@@@@@@@@@@@@@@@@@@@@@@@@@@@@@@@@@@@@@@@@@@@@@@@XOO",
"O.X      OO  OOOOO  OO   OOOOOO OO OO O OO   O OO O     O    XXO",
"OOX                         O O     OO               O O     XXO",
"OOX              O         O                                 XOO",
"OOX                          O                    O          XOO",
"OOO                  O               O                       XOO",
"OOX               O                                          XOO",
"OOX               O         O                                XOO",
"OOX                                                          XOO",
"OoX                                                          XXO",
"OOO                                                          XOO",
"OOX                                                          XOO",
"Oo+                                                          +OO",
"Oo+                                                          +OO",
"O++                                                          XOO",
"O++                                                          XOO",
"OX.                                                          XOO",
"OX.                                                          XOO",
"OXX                                                          XOO",
"OOX                                                          XOO",
"OXX                                                          XOO",
"OXX                                                          OOO",
"OOO                                                          OOO",
"OO+                                                          XOO",
"OOO                                                          XOO",
"OO+                                                          XOO",
"OO+                                                          +OO",
"OOX                                                          XXO",
"OOX                                                          XOO",
"OOX                                                          XOO",
"OOX                                                          XOO",
"OOO                                                          XOO",
"OOO                                                          XXO",
"OOX                                                          XOO",
"OOO                                                          XOO",
"OO+                                                          +OO",
"Oo+                                                          +OO",
"OO+                                                          +OO",
"OO+                                                          +OO",
"OO+                                                          +OO",
"OoX                                                          OOO",
"OoX                                                          OOO",
"OOX                                                          OOO",
"OOX                                                          OOO",
"OOX                                                          OOO",
"OOX                                                          OOO",
"OOX                                                          XOO",
"OO.                                                          .OO",
"O..@@@@@@@@@@@@@@@@@@@@@@@@@@@@@@@@@@@@@@@@@@@@@@@@@@@@@@@@@@..O",
"O..@@@@@@@@@@@@@@@@@@@@@@@@@@@@@@@@@@@@@@@@@@@@@@@@@@@@@@@@@@..O",
"O..@@@@@@@@@@@@@@@@@@@@@@@@@@@@@@@@@@@@@@@@@@@@@@@@@@@@@@@@@@...",
"@@@@@@@@@@@@@@@@@@@@@@@@@@@@@@@@@@@@@@@@@@@@@@@@@@@@@@@@@@@@@@@@",
"@@@@@@@@@@@@@@@@@@@@@@@@@@@@@@@@@@@@@@@@@@@@@@@@@@@@@@@@@@@@@@@@",
"@@@@@@@@@@@@@@@@@@@@@@@@@@@@@@@@@@@@@@@@@@@@@@@@@@@@@@@@@@@@@@@@"
};
