/* XPM */
static char *result[] = {
/* columns rows colors chars-per-pixel */
"64 64 7 1 ",
"  c black",
". c #3E2731",
"X c #733E39",
"o c #864E49",
"O c #FECD66",
"+ c gray",
"@ c None",
/* pixels */
"@@@@@@@@@@@@@@@@@@@@@@@@@@@@@@@@@@@@@@@@@@@@@@@@@@@@@@@@@@@@@@@@",
"@@@@@@@@@@@@@@@@@@@@@@@@@@@@@@@@@@@@@@@@@@@@@@@@@@@@@@@@@@@@@@@@",
"@@@@@@@@@@@@@@@@@@@@@@@@@@@@@@@@@@@@@@@@@@@@@@@@@@@@@@@@@@@@@@@@",
"@@@@@@@@@@@@@@@@@@@@@@@@@@@@@@@@@@@@@@@@@@@@@@@@@@@@@@@@@@@@@@@@",
"@@@@@@@@@@@@@@@@@@@@@@@@@@@@@@@@@@@@@@@@@@@@@@@@@@@@@@@@@@@@@@@@",
"@@@@@@@@@@@@@@@@@@@@@@@@@@@@@@@@@@@@@@@@@@@@@@@@@@@@@@@@@@@@@@@@",
"@@@@@@@@@@@@@@@@@@@@@@@@@@@@@@@@@@@@@@@@@@@@@@@@@@@@@@@@@@@@@@@@",
"@@@@@@@@@@@@@@@@@@@@@@@@@@@@@@@@@@@@@@@@@@@@@@@@@@@@@@@@@@@@@@@@",
"@@@@@@@@@@@@@@@@@@@@@@@@@@@@@@@@@@@@@@@@@@@@@@@@@@@@@@@@@@@@@@@@",
"@@@@@@@@@@@@@@@@@@@@@@@@@@@@@@@@@@@@@@@@@@@@@@@@@@@@@@@@@@@@@@@@",
"@.X@@@@@@@@@@@@@@@@@@@@@@@@@@@@@@@@@@@@@@@@@@@@@@@@@@@@@@@@@@XOO",
"O.X O OO   OO OOOOOOO O  OOOOOO OO OO O OO  O   OO  OOOO  OO XXO",
"OOX                       OOO O                              XXO",
"OOX             O           O                                XXO",
"OOX     O      OO            O                O              XOO",
"OOX            O                     O                       XOO",
"OOO       OO   O    O           O                            OOO",
"OOX                         O               O                XOO",
"OOO                                                          XOX",
"OOO                                                          XOO",
"OOX            O           O                                 XXO",
"OOX            O             O             O                 XOX",
"OO+                                                          +OO",
"Oo+                          O                               ++O",
"O++                                                          XO+",
"O++                                                          XOO",
"OX.                                                          XOX",
"OX.                                                          XOO",
"OXX                                                          XXO",
"OOX                                                          XOX",
"OXX                                                          OOO",
"OOX                                                          XOO",
"OOX                                                          XOO",
"O++                                                          XOO",
"OO+                                                          XOo",
"OO+                                                          XOO",
"OO+                                                          +OO",
"OOX                                                          XOO",
"OXX                                                          XXO",
"OOX                                                          XXO",
"OOX                                                          XXO",
"OOX                                                          XXO",
"OOX                                                          XXO",
"OOX                                                          XXO",
"OOX                                                          XXO",
"OO+                                                          ++O",
"OO+                                                          ++O",
"OOO                                                          ++O",
"OO+                                                          ++O",
"OOO                                                          ++O",
"OOX                                                          XOO",
"OOO                                                          XOO",
"OOX                                                          XOO",
"OOO                                                          XOO",
"OOO                                                          XOO",
"OOX                                                          XXO",
"OOX                                                          XOo",
"Oo.                                                          ..O",
"O..@@@@@@@@@@@@@@@@@@@@@@@@@@@@@@@@@@@@@@@@@@@@@@@@@@@@@@@@@@..O",
"O..@@@@@@@@@@@@@@@@@@@@@@@@@@@@@@@@@@@@@@@@@@@@@@@@@@@@@@@@@@...",
"O..@@@@@@@@@@@@@@@@@@@@@@@@@@@@@@@@@@@@@@@@@@@@@@@@@@@@@@@@@@...",
"@@@@@@@@@@@@@@@@@@@@@@@@@@@@@@@@@@@@@@@@@@@@@@@@@@@@@@@@@@@@@@@@",
"@@@@@@@@@@@@@@@@@@@@@@@@@@@@@@@@@@@@@@@@@@@@@@@@@@@@@@@@@@@@@@@@",
"@@@@@@@@@@@@@@@@@@@@@@@@@@@@@@@@@@@@@@@@@@@@@@@@@@@@@@@@@@@@@@@@"
};
