/* XPM */
static char *result[] = {
/* columns rows colors chars-per-pixel */
"64 64 9 1 ",
"  c black",
". c #3E2731",
"X c #733E39",
"o c #864E49",
"O c #FECD66",
"+ c gray62",
"@ c gray",
"# c #FFEBBD",
"$ c None",
/* pixels */
"$$$$$$$$$$$$$$$$$$$$$$$$$$$$$$$$$$$$$$$$$$$$$$$$$$$$$$$$$$$$$$$$",
"$$$$$$$$$$$$$$$$$$$$$$$$$$$$$$$$$$$$$$$$$$$$$$$$$$$$$$$$$$$$$$$$",
"$$$$$$$$$$$$$$$$$$$$$$$$$$$$$$$$$$$$$$$$$$$$$$$$$$$$$$$$$$$$$$$$",
"$$$$$$$$$$$$$$$$$$$$$$$$$$$$$$$$$$$$$$$$$$$$$$$$$$$$$$$$$$$$$$$$",
"$$$$$$$$$$$$$$$$$$$$$$$$$$$$$$$$$$$$$$$$$$$$$$$$$$$$$$$$$$$$$$$$",
"$$$$$$$$$$$$$$$$$$$$$$$$$$$$$$$$$$$$$$$$$$$$$$$$$$$$$$$$$$$$$$$$",
"$$$$$$$$$$$$$$$$$$$$$$$$$$$$$$$$$$$$$$$$$$$$$$$$$$$$$$$$$$$$$$$$",
"$$$$$$$$$$$$$$$$$$$$$$$$$$$$$$$$$$$$$$$$$$$$$$$$$$$$$$$$$$$$$$$$",
"$$$$$$$$$$$$$$$$$$$$$$$$$$$$$$$$$$$$$$$$$$$$$$$$$$$$$$$$$$$$$$$$",
"$$$$$$$$$$$$$$$$$$$$$$$$$$$$$$$$$$$$$$$$$$$$$$$$$$$$$$$$$$$$$$$$",
"OXXX$$$$$.X$$$$$$$$$$$$$$$$$$$$$$$$$$$$$$$$$$$$$$$$$$XOOOOOOOO$$",
"OOOX.XXXX.X  O  OO O OO OOOOOOO OO OO O OO OOOO OOOOOXXOOXOOOO.O",
"OOOO.XXXX.X      O        O O O     OO            O  XXXXXXOOX.O",
"OOOO.XXXX.X      O   O      O                  O     XXXXOXXXOOO",
"OOOO.XXXX.X       O          O       O         O     XXXXXXXXOOO",
"OXOXXXXXX.X                          O         O     XXXXOOXXOOO",
"OOOX.XXXX.X           O    O            O        O   XXXXXXXXOOO",
"OXOX.XXXX.X        O  O     O           O  O   O     XXXXXOXXXOO",
"OOXX.XXXXoX                         O                XXXXXXXXO.O",
"OOXX.XXXXoX                O               O   O     XXXXXXXOOOO",
"OOXX.XXXXoX       O                 O      O   O     XXXXXOXXOOO",
"OXXX.XXXXXX                                O         XXXXXXXXOOO",
"OOO@.@@@@o@        O       O                         @@@@@X@@.OO",
"OO@@.@@@@o@                O                         @@@@@X@@O@O",
"OX@@@@@@@@@                                          X@@@@@@OOOO",
"OO@@@@@@@@@                                          X@@@@@@@.OO",
"OOXXXXXXXX.                                          XXXXXXXOOOO",
"OOOX.XXXXX.                                          XXXXXXXXXOO",
"OOOX.XXXXXX                                          XXXXXXXXO.O",
"OOXX.XXXXOX                                          XXXXXXOOOOO",
"OOOX.XXOOXX                                          XXoXXXXXOOO",
"O@OX.XXOXXX                                          XXoXXXXOOOO",
"O@OX.XXXXXX                                          XXoXXXXOXOO",
"OOO@.@@@@@@                                          X@oX@X@OO.O",
"OO@@@@@XO@@                                          X@oX@X@OOOO",
"OX@@@@@X@@@                                          X@oX@X@@OOO",
"OO@@.@@X@O@                                          @@o@@@@XO.O",
"OOXX.OXXXXX                                          XXoXXXXXOOO",
"OXXX.XXXXXX                                          XXXXXXOXXOO",
"OOOX.XXXXXX                                          XXXXXXXXOXO",
"O@OX.XXXXXX                                          XXXXXXXOXOO",
"OOOX.XXX#XX                                          XXoXXOXXOOO",
"OOXX.XXXX#X                                          XXoXXXXXXOO",
"O@XXX.XXXXX                                          XXoXXXXOOOO",
"O@XXX.XXXXX                                          XXoXXXXOOOO",
"OO@@@.@@@@@                                          @@o@@@@OOOO",
"O@@@@.@@@o@                                          @@o@@@@@OOO",
"OX@@@.@@@o@                                          @@oX@@@OOOO",
"OOX@.@@@@@@                                          @@@X@@XXOOO",
"OOX@.@@@@@@                                          @@@X@@XO.OO",
"OXXXX.XXXoX                                          XXXXXXXOOOO",
"OOXXX.XXXoX                                          XXXXXXXOOOO",
"OOXXX.XXXXX                                          XXoXXXXOOOO",
"OOXXX.XXXoX                                          X#oXXXXXOOO",
"OOXXXXXXXoX                                          XXoXXXXXOOO",
"OOXX.XXXXoX                                          XXXXXXXXOOO",
"OOOX.XXXXoX                                          XXoXXXXXOOO",
"OOO.XXXXXo.                                          .........OO",
"OOO........$$$$$$$$$$$$$$$$$$$$$$$$$$$$$$$$$$$$$$$$$$.........OO",
"OOO........$$$$$$$$$$$$$$$$$$$$$$$$$$$$$$$$$$$$$$$$$$........OOO",
"OOO........$$$$$$$$$$$$$$$$$$$$$$$$$$$$$$$$$$$$$$$$$$......+.OOO",
"$$$$$$$$$$$$$$$$$$$$$$$$$$$$$$$$$$$$$$$$$$$$$$$$$$$$$$$$$$$$$$$$",
"$$$$$$$$$$$$$$$$$$$$$$$$$$$$$$$$$$$$$$$$$$$$$$$$$$$$$$$$$$$$$$$$",
"$$$$$$$$$$$$$$$$$$$$$$$$$$$$$$$$$$$$$$$$$$$$$$$$$$$$$$$$$$$$$$$$"
};
