/* XPM */
static char *result[] = {
/* columns rows colors chars-per-pixel */
"64 64 9 1 ",
"  c black",
". c #3E2731",
"X c #733E39",
"o c #864E49",
"O c #FECD66",
"+ c gray62",
"@ c gray",
"# c #FFEBBD",
"$ c None",
/* pixels */
"$$$$$$$$$$$$$$$$$$$$$$$$$$$$$$$$$$$$$$$$$$$$$$$$$$$$$$$$$$$$$$$$",
"$$$$$$$$$$$$$$$$$$$$$$$$$$$$$$$$$$$$$$$$$$$$$$$$$$$$$$$$$$$$$$$$",
"$$$$$$$$$$$$$$$$$$$$$$$$$$$$$$$$$$$$$$$$$$$$$$$$$$$$$$$$$$$$$$$$",
"$$$$$$$$$$$$$$$$$$$$$$$$$$$$$$$$$$$$$$$$$$$$$$$$$$$$$$$$$$$$$$$$",
"$$$$$$$$$$$$$$$$$$$$$$$$$$$$$$$$$$$$$$$$$$$$$$$$$$$$$$$$$$$$$$$$",
"$$$$$$$$$$$$$$$$$$$$$$$$$$$$$$$$$$$$$$$$$$$$$$$$$$$$$$$$$$$$$$$$",
"$$$$$$$$$$$$$$$$$$$$$$$$$$$$$$$$$$$$$$$$$$$$$$$$$$$$$$$$$$$$$$$$",
"$$$$$$$$$$$$$$$$$$$$$$$$$$$$$$$$$$$$$$$$$$$$$$$$$$$$$$$$$$$$$$$$",
"$$$$$$$$$$$$$$$$$$$$$$$$$$$$$$$$$$$$$$$$$$$$$$$$$$$$$$$$$$$$$$$$",
"$$$$$$$$$$$$$$$$$$$$$$$$$$$$$$$$$$$$$$$$$$$$$$$$$$$$$$$$$$$$$$$$",
"OXOX$$$oXXXXXXX$$$$$.X$$$$$$$$$$$$$$$$$$$$XOOOOOOOO$$oOOOOOOXX$$",
"OOXO.XXoXXXXXXX.XXXX.X   OOOOOO  OOOO     XXOOXOOOO.XoXXOOXXOO.O",
"OXOO.XXoXXXXXXX.XXXX.X    OOO     OO      XXXXXXOOX.XoXXXXOXOOOO",
"OXOO.XXoXXXX#XX.XXXX.X    OOO    O        XXXXOXXXO.XoXXXXOOOOOO",
"OXXX.XXoXXXX#XX.XXXX.X     O     O        XXXXXXXXO.XoXXXXOOXOOO",
"OOOX.XXoXXXXXXXXXXXX.X           O        XXXXOOXXO.XoXXXXXXOOOO",
"OOOX.XXXXXXX#XX.XXXX.X                    XXXXXXXXX.XoXXXXXXXXOO",
"OOOX.XXXXXXXXXX.XXXX.X                    XXXXXOXXX.XoXXXXXXXXOO",
"OOOX.XXoXXXXXXX.XXXXoX                    XXXXXXXXO.XoXXXXXXXO.O",
"OOOX.XXoXXXXXXX.XXXXoX                    XXXXXXXXX.XoXXXXXXXO.O",
"OOOO.XXoXXXXXXX.XXXXoX                    XXXXXOXXX.XoXXXXXXXO.O",
"OOOOOXXoXXXXXXX.XXXXXX                    XXXXXXXXX.XoXXXXXXXOXO",
"OOOOOXXoX@@@@@@.@@@@o@                    @@@@@X@@..@XXXXXXXO.XO",
"OOOX.XXoX@@@X@@.@@@@o@                    @@@@@X@@.@@XXXXXXXOOXO",
"OOOX.XXXX@@@X@@@@@@@@@                    X@@@@@@@.@Xo@XXXXXXOXO",
"OOOOXXXoX@@@X@@@@@@@@@                    X@@@@@@@.@ooXXXXXXOOOO",
"OXOXXXXoX@@@@XXXXXXXX.                    XXXXXXXX.XooXXXX#XOOOO",
"OOXXXXXoX@@@@XX.XXXXX.                    XXXXXXXXXXXoXXXXXXXOOO",
"OOOXXXXoX@@@@XX.XXXXXX                    XXXXXXXXX.XoXXXX#XX.OO",
"OOOO.XXoX@@X@XX.XXXXOX                    XXXXXXOOX.XoXXXX#XX.OO",
"OXOo.XXoX@@X@XX.XXOOXX                    XXoXXXXXO.XoXXXXXXXXOO",
"OXOOXXXoX@@X@XX.XXOXXX                    XXoXXXXXX.XoXXXXXXXXOO",
"OXOXXXXoXX@@@XX.XXXXXX                    XXoXXXXXX.XoXXXXXXXOOO",
"OXOXXXXoXX@@@@@.@@@@@@                    X@oX@X@@@.@oXXXXXXXOOO",
"OOOX.XXoXX@@@@@@@@XO@@                    X@oX@X@@@.@oXXXXXXOOOO",
"OOOO.XXoX@@@X@@@@@X@@@                    X@oX@X@@@.XoXOXXXXXOOO",
"OOOOO.XoX@@@X@@.@@X@O@                    @@o@@@@XX.XoXXXXXXXOOO",
"OXOOX.XoX@@@XXX.OXXXXX                    XXoXXXXXX.XoXXXOOXXOOO",
"OXOOX.XoX@@@XXX.XXXXXX                    XXXXXXOXX.XoXXXXXXXOXO",
"OXOOX.XoX@X@@XX.XXXXXX                    XXXXXXXXXXXXXXXXXXOOXO",
"OOOOXXXoX@@@@XX.XXXXXX                    XXXXXXXXXXXXXXXXXXXOOO",
"OOOOOOXXX@X@@OX.XXX#XX                    XXoXXOXXX.XXXXXXXXXOOO",
"OOXO.XOOX@X@OXX.XXXX#X                    XXoXXXXXX.XoXXXXXXXOOO",
"OXOXXXXoX@X@@XXX.XXXXX                    XXoXXXXXX.XoXXXXXOXOOO",
"OOOX.XXoX@@@@XXX.XXXXX                    XXoXXXXXX.XoXXXXXXXOOO",
"OXOO.XXXX@@@O@@@.@@@@@                    @@o@@@@@@.@oXXXXXXXOOO",
"OOOX.XXoX@O@@@@@.@@@o@                    @@o@@@@@@.@oXXXXXXOOOO",
"OOOXOOXoX@@@X@@@.@@@o@                    @@oX@@@X@@o@@XXXXOXXOO",
"OXOOOXXoX@@XXX@.@@@@@@                    @@@X@@XX.@o@@XXXXOXOOO",
"OOOOXXXXXX@XXX@.@@@@@@                    @@@X@@XX.@o@XXXXXOXoOO",
"OOOX.XXoXXXXXXXX.XXXoX                    XXXXXXXX.XoXXOXXXXXOXO",
"OOOX.XXoXXXXXXXX.XXXoX                    XXXXXXXX.XoXXOXXXXXOOO",
"OOXX.XXoXXXXXXXX.XXXXX                    XXoXXXXX.XoXXXXXXOXOOO",
"OOOX.XXoXXXXXXXX.XXXoX                    X#oXXXXX.XOXXOOXXXOOOO",
"OOOX.XXoXXXXXXXXXXXXoX                    XXoXXXXX.XOoXOXXXXXXOO",
"OXOXXXXXXXXXXXX.XXXXoX                    XXXXXXXX.OOoXXOXXOXOOO",
"OOOXXXXoXXXXXXX.XXXXoX                    XXoXXXXXXOOoXXOXXOXOOO",
"OOO.XXXo.......XXXXXo.                    .........OXo......OOOO",
"OOOO..................$$$$$$$$$$$$$$$$$$$$...................OOO",
"OOOO..................$$$$$$$$$$$$$$$$$$$$...................OOO",
"O.OOO.................$$$$$$$$$$$$$$$$$$$$......+..............O",
"$$$$$$$$$$$$$$$$$$$$$$$$$$$$$$$$$$$$$$$$$$$$$$$$$$$$$$$$$$$$$$$$",
"$$$$$$$$$$$$$$$$$$$$$$$$$$$$$$$$$$$$$$$$$$$$$$$$$$$$$$$$$$$$$$$$",
"$$$$$$$$$$$$$$$$$$$$$$$$$$$$$$$$$$$$$$$$$$$$$$$$$$$$$$$$$$$$$$$$"
};
