/* XPM */
static char *_967f506138c42869d443bcf59b825d2zc2sRmIDT3QS5ZRV[] = {
/* columns rows colors chars-per-pixel */
"64 128 3 1 ",
"  c None",
". c black",
"X c white",
/* pixels */
"                                                                ",
"                                                                ",
"                                                                ",
"                                                                ",
"                                                                ",
"                                                                ",
"                                                                ",
"                                                                ",
"                                                                ",
"                                                                ",
"                                                                ",
"                                                                ",
"                                                                ",
"                                                                ",
"                                                                ",
"                                                                ",
"                                                                ",
"                                                                ",
"                                                                ",
"                                                                ",
"                                                                ",
"                                         ...                    ",
"                                      ...                       ",
"                                    ..                          ",
"                               .  ...                           ",
"                             .....                              ",
"                            ... .   ......                      ",
"                           ..  .  ..      ..                    ",
"                      .   ..  .... ...........                  ",
"                     .    .  ......          ..                 ",
"                     .   .  ...    .......     .                ",
"                    .   .  ..   ..............  .               ",
"                    .   . ............        . .               ",
"                   .   ............X......    . .               ",
"                   .  .. . .....XXXXXXX....   . .               ",
"                  .  .. . ...XXXXXXXXXXX.. . ..  .              ",
"                  . ... ...XXXXXXXXXXXXX. .. ... .              ",
"                 . . . ...XXXXXXXXXXXXXXX. .. ..                ",
"                 . ... ..XXXXXXXXXXXXXXXXX... ...               ",
"                .  .. ..XXXXXXXXXXXXXXXXXXX....  .              ",
"                . .....XXXXXXXXXXXXXXXXXXXX....                 ",
"                . .....XXXXXXXXXXXXXXXXXXXX. ...                ",
"                . .. .XXXXXXXXXXXXXXXXXXXXXX....                ",
"                .......XXXXXXXXXXXXXXXXXXXXX.....               ",
"               . ....XXXXXXXXXXXXXXXXXXXXXXX. ..                ",
"               .. ...XXXXXXXXXXXXXXXXXXXXXX.....                ",
"               .. ...XXXXXXXXXXXXXXXXXXXXXX. ...                ",
"               .. ...XXXXXXXXXXXXXXXXXXXXX.....                 ",
"               .. ...XXXXXXXXXXXXXXXXXXXXX. ...                 ",
"               .. .. .XXXXXXXXXXXXXXXXXXX......                 ",
"               .. .. .XXXXXXXXXXXXXXXXXXX. ...                  ",
"               . ...  .XXXXXXXXXXXXXXXXX......                  ",
"               . .... .XXXXXXXXXXXXXXX........                  ",
"               . .. ..X.XXXXXXXXXXXXX.X.......                  ",
"               .  . ..XX.XXXXXXXXXXX.X.. ... .                  ",
"               . ..  ..XX.XXXXXXXXXX... . .. .                  ",
"                . .. . .XX..XXXXXX..XX. ...  .                  ",
"                .  .. ...XXX.......XX. . .  .                   ",
"                 . ..   ..XXXXXXX.XX......  .                   ",
"                  .  ..  ...XXXX.XX. .....  .                   ",
"                  .   ... . ........... .   .                   ",
"                   ..  ......    ....  .   .                    ",
"                     ..  . .............   .                    ",
"                          .. .... ..  .  ..                     ",
"                            ............                        ",
"                            .    .   .                          ",
"                          ..    .   .                           ",
"                         .    ...  .                            ",
"                               .   .                            ",
"                              .   .                             ",
"                             .                                  ",
"                            .                                   ",
"                           .                                    ",
"                         ..                                     ",
"                        .                                       ",
"                                                                ",
"                                                                ",
"                                                                ",
"                                                                ",
"                                                                ",
"                                                                ",
"                                                                ",
"                                                                ",
"                                                                ",
"                                                                ",
"                                                                ",
"                                                                ",
"                                                                ",
"                                                                ",
"                                                                ",
"                                                                ",
"                                                                ",
"                                                                ",
"                                                                ",
"                                                                ",
"                                                                ",
"                                                                ",
"                                                                ",
"                                                                ",
"                                                                ",
"                                                                ",
"                                                                ",
"                                                                ",
"                                                                ",
"                                                                ",
"                                                                ",
"                                                                ",
"                                                                ",
"                                                                ",
"                                                                ",
"                                                                ",
"                                                                ",
"                                                                ",
"                                                                ",
"                                                                ",
"                                                                ",
"                                                                ",
"                                                                ",
"                                                                ",
"                                                                ",
"                                                                ",
"                                                                ",
"                                                                ",
"                                                                ",
"                                                                ",
"                                                                ",
"                                                                ",
"                                                                "
};
