/* XPM */
static char *_36b6251193c49fec6cedb8f37ff0923DoJyudlxYhw5fiVR[] = {
/* columns rows colors chars-per-pixel */
"64 128 3 1 ",
"  c None",
". c black",
"X c white",
/* pixels */
"                                                                ",
"                                                                ",
"                                                                ",
"                                                                ",
"                                                                ",
"                                                                ",
"                                                                ",
"                                                                ",
"                                                                ",
"                                                                ",
"                                                                ",
"                                                                ",
"                                                                ",
"                                                                ",
"                                                                ",
"                                                                ",
"                                                                ",
"                                                                ",
"                                                                ",
"                                                                ",
"                                                                ",
"                                                                ",
"                                                                ",
"                                                                ",
"                                                                ",
"                                                                ",
"                                                                ",
"                                                                ",
"                           .                                    ",
"                                                                ",
"                           ...                                  ",
"                        ...  ...                                ",
"                      ..  ........                              ",
"                     .  ......   ..                             ",
"                    .  . ......   ...                           ",
"                   . ........ ...  ...                          ",
"                  . . ...XXXX.. ... ...                         ",
"                  . ....XXXXXXX.X... . .                        ",
"                 . . . .XXXXXXX.XX......                        ",
"                 . .....XXXXXXXX.X. ... .                       ",
"                . . . .XXXXXXXXX.XX......                       ",
"                . .....XXXXXXXXX.XX. ....                       ",
"                . .. ..XXXXXXXXX.XXX.....                       ",
"               .  .....XXXXXXXXXX.XX.. ..                       ",
"               .  .....XXXXXXXXXX.XXX.....                      ",
"               . ......XXXXXXXXXX.XXX.....                      ",
"               . .. ...XXXXXXXXXX.XXXX....                      ",
"               . ... ..XXXXXXXXXX.XXXX....                      ",
"                . ...X.XXXXXXXXXX.XXXX....                      ",
"                . ...X.XXXXXXXXXX.XXXX....                      ",
"                . ...X.XXXXXXXXXX.XXXX....                      ",
"                . ...X.XXXXXXXXXX.XXXX....                      ",
"                .....X.XXXXXXXXXX.XXXX....                      ",
"                 ....X.XXXXXXXXX.XXXXX....                      ",
"                 ....X.XXXXXXXXX.XXXXX. ..                      ",
"                 ....X.XXXXXXXXX.XXXXX. ..                      ",
"                 ....X.XXXXXXXXX.XXXXX. ..                      ",
"                 . ..XX.XXXXXXXX.XXXXXX...                      ",
"                  ...XX.XXXXXXXX.XXXXXX...                      ",
"                  ...XX.XXXXXXXX.XXXXXX...                      ",
"                  . ..X.XXXXXXX.XXXXXXX...                      ",
"                  . ..X.XXXXXXX.XXXXXXX...                      ",
"                   .... .XXXXXX.XXXXXXX...                      ",
"                   ... ..XXXXXX.XXXXXX...                       ",
"                   . ... .XXXXX.XXXXXX...                       ",
"                    ... ..XXXX.XXXXXXX...                       ",
"                    . .. ..XXX.XXXXXX....                       ",
"                     ... ..XX.XXXXXXX....                       ",
"                     .... ..X.XXXXXXX....                       ",
"                      ... ..X.XXXXXX.....                       ",
"                       . . ...XXXXXX... .                       ",
"                       .. ...X..........                        ",
"                        .  ....XXXX.. ..                        ",
"                        .. ... .XXX....                         ",
"                         ...... .......                         ",
"                          .  .........                          ",
"                           ..  ......                           ",
"                             ..   .                             ",
"                               ...                              ",
"                                                                ",
"                                                                ",
"                                                                ",
"                                                                ",
"                                                                ",
"                                                                ",
"                                                                ",
"                                                                ",
"                                                                ",
"                                                                ",
"                                                                ",
"                                                                ",
"                                                                ",
"                                                                ",
"                                                                ",
"                                                                ",
"                                                                ",
"                                                                ",
"                                                                ",
"                                                                ",
"                                                                ",
"                                                                ",
"                                                                ",
"                                                                ",
"                                                                ",
"                                                                ",
"                                                                ",
"                                                                ",
"                                                                ",
"                                                                ",
"                                                                ",
"                                                                ",
"                                                                ",
"                                                                ",
"                                                                ",
"                                                                ",
"                                                                ",
"                                                                ",
"                                                                ",
"                                                                ",
"                                                                ",
"                                                                ",
"                                                                ",
"                                                                ",
"                                                                ",
"                                                                ",
"                                                                ",
"                                                                ",
"                                                                "
};
