/* XPM */
static char *_0861b3cafde4c4bc6cedb06ddefa6ddvpds0WXibbxcph0R[] = {
/* columns rows colors chars-per-pixel */
"64 128 3 1 ",
"  c None",
". c black",
"X c white",
/* pixels */
"                                                                ",
"                                                                ",
"                                                                ",
"                                                                ",
"                                                                ",
"                                                                ",
"                                                                ",
"                                                                ",
"                                                                ",
"                                                                ",
"                                                                ",
"                                                                ",
"                                                                ",
"                                                                ",
"                                                                ",
"                                                                ",
"                                                                ",
"                                                                ",
"                                                                ",
"                                                                ",
"                                                                ",
"                                                                ",
"                                                                ",
"                                                                ",
"                                                                ",
"                                                                ",
"                                                                ",
"                                                                ",
"                                                                ",
"                                                                ",
"                                                                ",
"                                                                ",
"                                                                ",
"                                                                ",
"                                                                ",
"                                                                ",
"                                                                ",
"                                                                ",
"                                                                ",
"                                                                ",
"                                                                ",
"                                                                ",
"                                                                ",
"                                                                ",
"                                                                ",
"                                                                ",
"                                                                ",
"                                                                ",
"                                                                ",
"                                                                ",
"                                                                ",
"                                                                ",
"                                                                ",
"                                                                ",
"                                                                ",
"                                                                ",
"                                                                ",
"                                                                ",
"                                                                ",
"                                                                ",
"                                                                ",
"                                                                ",
"                                                                ",
"                                                                ",
"                .                                               ",
"                .                                               ",
"                .                                               ",
"                .                                               ",
"                ..                                              ",
"                ..                                              ",
"                .X.                                             ",
"                .X.                                             ",
"                .X.                                             ",
"                .XX.                                            ",
"                .XX.                                            ",
"                .XX.                                            ",
"               ..X..                                            ",
"                ... .                                           ",
"               .... .                                           ",
"               .XXX.X.                                          ",
"               .XXX.X.                                          ",
"               ..XX.XX.                                         ",
"                .XX.XX.                                         ",
"                .XXX.X.  .                                      ",
"                .XXX.XX. .                                      ",
"                .XXX.XX....     .                               ",
"                .X.X.XX.....    ..                              ",
"                .X....X...X..  ..X.                             ",
"                .X..X.XXX.X.....X..                             ",
"                 ...X.XXX..X.. .X..                             ",
"                 ...X.XXX..X.X..X.X.                            ",
"                 ...X.XXXX.X.X..X.X. ..   ..                    ",
"                 .X...XXXXXXX.X.X.XX...   ..                    ",
"                 .X....XXXXXXXX..XXX...   .X.                   ",
"                 .XX...X.XXXXXXXXXXX....  .X.                   ",
"                 .XX...X.XXXXX.XXXXXX... .XXX.                  ",
"                 .XX..X..XXXXX.XXXXXXX.. .XXX.                  ",
"                 .XX.X...XXXXX.XXX.XXXX...XXXX.                 ",
"                 .XX.X.XX.XXXX.XXX.XXXXX..XXXX.                 ",
"                 .XXX..XX.XXXX.XXX.XXXXX..XXXX.                 ",
"                 .XXX..XX.XXXX.XXX.XXXXXXXXXXX.                 ",
"                 .XXX..XX.XXXX.XXX.XXXXXXXXXXX.                 ",
"                 .XXXXX.X.XXXX.XXX.XXXXXXXXXXX.                 ",
"                 .XXXXX.X.XXXX.XXX.XXXXXXXXXXXX.                ",
"                 .XXXXX.X.XXXX.XXX.XXXXXXXXXXXX.                ",
"                 .XXXXX.XX.XXX.XXX.XXXXXXXXXXXXX.               ",
"                 .XXXXXX.X.XXX.XXX.XXXXXXXXXXXXX.               ",
"                .XXXXXXX.X.XXXX.XX.XXXXXXXXXXXXXX.              ",
"                .XXXXXXXXX.XXXX.XX.XXXXXXXXXXXXXX.              ",
"                .XXXXXXXXX.XXXX.XX.XXXXXXXXXXXXXX.              ",
"                .XXXXXXXXX.XXXXXXX.XXXXXXXXXXXXXX.              ",
"                .XXXXXXXXXX.XXXXXXX.XXXXXXXXXXXXXX.             ",
"                .XXXXXXXXXX.XXXXXXX.XXXXXXXXXXXXXX.             ",
"               .XXXXXXXXXXX.XXXXXXXXXXXXXXXXXXXXXX.             ",
"               .XXXXXXXXXXXXXXXXXXXXXXXXXXXXXXXXXXX.            ",
"               .XXXXXXXXXXXXXXXXXXXXXXXXXXXXXXXXXXX.            ",
"               .XXXXXXXXXXXXXXXXXXXXXXXXXXXXXXXXXXX.            ",
"               .XXXXXXXXXXXXXXXXXXXXXXXXXXXXXXXXXXX.            ",
"               .XXXXXXXXXXXXXXXXXXXXXXXXXXXXXXXXXXX.            ",
"              .XXXXXXXXXXXXXXXXXXXXXXXXXXXXXXXXXXXXX.           ",
"              .XXXXXXXXXXXXXXXXXXXXXXXXXXXXXXXXXXXXX.           ",
"              .XXXXXXXXXXXXXXXXXXXXXXXXXXXXXXXXXXXXX.           ",
"              .XXXXXXXXXXXXXXXXXXXXXXXXXXXXXXXXXXXXXX.          ",
"              .XXXXXXXXXXXXXXXXXXXXXXXXXXXXXXXXXXXXXX.          ",
"             .XXXXXXXXXXXXXXXXXXXXXXXXXXXXXXXXXXXXXXX.          ",
"             .XXXXXXXXXXXXXXXXXXXXXXXXXXXXXXXXXXXXXXX.          ",
"             .XXXXXXXXXXXXXXXXXXXXXXXXXXXXXXXXXXXXXXXX.         ",
"            .XXXXXXXXXXXXXXXXXXXXXXXXXXXXXXXXXXXXXXXXXX.        "
};
