/* XPM */
static char *_b6b73d9db6941ccc17a0f4e55ffcfa5YbXmmRlps06bO9ow[] = {
/* columns rows colors chars-per-pixel */
"64 128 3 1 ",
"  c None",
". c black",
"X c white",
/* pixels */
"                                                                ",
"                                                                ",
"                                                                ",
"                                                                ",
"                                                                ",
"                                                                ",
"                                                                ",
"                                                                ",
"                                                                ",
"                                                                ",
"                                                                ",
"                                                                ",
"                                                                ",
"                                                                ",
"                                                                ",
"                                                                ",
"                                                                ",
"                                                                ",
"                                                                ",
"                                                                ",
"                                                                ",
"                                                                ",
"                                                                ",
"                                                                ",
"                                                                ",
"                                                                ",
"                                                                ",
"                                                                ",
"                                                                ",
"                                                                ",
"                                                                ",
"                                                                ",
"                                                                ",
"                                                                ",
"                                                                ",
"                                                                ",
"                                                                ",
"                                                                ",
"                                                                ",
"                                                                ",
"                                                                ",
"                                                                ",
"                                                                ",
"                                                                ",
"                                                                ",
"                                                                ",
"                                                                ",
"                                                                ",
"                                                                ",
"                                 .                              ",
"                                 ...                            ",
"                                .X..                            ",
"                                .X..                            ",
"                            .  .XXX.                            ",
"                           ..  .XXX.                            ",
"                          .X. .XXX..                            ",
"                          .X. .XXX..                            ",
"                         .XX..XXX.X.                            ",
"                        .XXXX.XXX.X.                            ",
"                        .XX..XXXX.X. .                          ",
"                       .XXX..XXX.XX...                          ",
"                       .XXX..XXX.XX...                          ",
"                      .XXXX.XXXX.XX...                          ",
"                      .XXXX.XXXX.X.XX.                          ",
"                     .XXXXX.XXX.XX.XX.                          ",
"                     .XXXX.XXXX.XX.XX.                          ",
"                     .XXX.XXXXX.XX.XX.                          ",
"                    .XXXX.XXXX.XXX.XX.                          ",
"                    .XXXXXXXXX.XXX.XX.                          ",
"                    .XXXXXXXX.XXXX.XX.                          ",
"                   .XXXXXXXXX.XXXX.XX.                          ",
"                   .XXXXXXXXX.XXXX.X..  .                       ",
"                   .XXXXXXXXXXXXXXX...  .                       ",
"                   .XXXXXXXXXXXXXXX.X.  .                       ",
"                  .XXXXXXXXXXXXXXXX.X.  .                       ",
"                  .XXXXXXXXXXXXXXXXXX. .                        ",
"                  .XXXXXXXXXXXXXXXXXX. .                        ",
"                  .XXXXXXXXXXXXXXXXXX. .                        ",
"                 .XXXXXXXXXXXXXXXXXXX. .                        ",
"                 .XXXXXXXXXXXXXXXXXXXX..                        ",
"                 .XXXXXXXXXXXXXXXXXXXXX.                        ",
"                 .XXXXXXXXXXXXXXXXXXXX.                         ",
"               ..XXXXXXXXXXXXXXXXXXXXX.                         ",
"               ..XXXXXXXXXXXXXXXXXXXXX.                         ",
"               ..XXXXXXXXXXXXXXXXXXXXX.                         ",
"              .X.XXXXXXXXXXXXXXXXXXXX.                          ",
"              .X.XXXXXXXXXXXXXXXXXXXX.                          ",
"              .XXXXXXXXXXXXXXXXXXXXX.                           ",
"              .XXXXXXXXXXXXXXXXXXXXX.                           ",
"              .XXXXXXXXXXXXXXXXXXXX.                            ",
"              .XXXXXXXXXXXXXXXXXX.X.                            ",
"              .XXXXXXXXXXXXXXXXXX.X.                            ",
"              .XXXXXXXXXXXXXXXXXX..                             ",
"              .XXXXXXXXXXXXXXX.XX.                              ",
"              .XXXXXXXXXXXXXX.XXX.                              ",
"              .XXXXXXXXXXXXXX.XX.                               ",
"              .XXXXXXXXXXXXX.XXX.                               ",
"             .XXXXXXXXXXXX.X.XX.                                ",
"             .XXXXXXXXXXX.X.XX..                                ",
"             .XXXXXXXX.X.XX.X. .                                ",
"             .XXXXXXXX.X.XX....                                 ",
"             .XXXXXXX. .XX.  .                                  ",
"             .XXXXXXX. .XX.                                     ",
"             .XXXXXX. . ..                                      ",
"             .XXXXXX..  ..                                      ",
"             .XXXXX...  .                                       ",
"             .XXXXX..                                           ",
"             .XXXX. .                                           ",
"             .XXXX.                                             ",
"             .XXXX.                                             ",
"             .XXX.                                              ",
"             .XXX.                                              ",
"              .XX.                                              ",
"              ...                                               ",
"               ..                                               ",
"               .                                                ",
"               .                                                ",
"              ..                                                ",
"              .                                                 ",
"                                                                ",
"                                                                ",
"                                                                ",
"                                                                ",
"                                                                ",
"                                                                ",
"                                                                ",
"                                                                ",
"                                                                "
};
