/* XPM */
static char *_c81fb873fdc47eae97b4970c8c40a58VfRWc5F2rjtXeS59[] = {
/* columns rows colors chars-per-pixel */
"64 128 3 1 ",
"  c None",
". c black",
"X c white",
/* pixels */
"                                                                ",
"                                                                ",
"                                                                ",
"                                                                ",
"                                                                ",
"                                                                ",
"                                                                ",
"                                                                ",
"                                                                ",
"                                                                ",
"                                                                ",
"                                                                ",
"                                                                ",
"                            ...                                 ",
"                          ..                                    ",
"                         .            .....                     ",
"                        .         ....     .                    ",
"                       .       ...                              ",
"                      .      ..                                 ",
"                     .     ..   .........                       ",
"                    .    .............   .                      ",
"            .      .    ................. .                     ",
"            ..    .   .....................                     ",
"            ..   .  ..............XX.... ....                   ",
"           . .   . .... ...XXXXXXX...X...  . ..                 ",
"           . .  . .... ..XXXXXXXXXXXX... ....  .                ",
"           . .  . . . .XXXXXXXXXXXXXXXX..X....                  ",
"           ..  ...  ..XXXXXXXXXXXXXXXXX..XX.. .                 ",
"           ..  ... ..XXXXXXXXXXXXXXXXXXX..X... .                ",
"           ..  ..  ..XXXXXXXXXXXXXXXXXXX..XX... .               ",
"           .. ... ..XXXXXXXXXXXXXXXXXXXXX.XX. ...               ",
"           .. ......XXXXXXXXXXXXXXXXXXXX..XX. .. .              ",
"            . ......XXXXXXXXXXXXXXXXXXXX..XX. ....              ",
"            .......XXXXXXXXXXXXXXXXXXXXX..XX. . . .             ",
"            .......XXXXXXXXXXXXXXXXXXXXX..XX. . ...             ",
"            .... ..XXXXXXXXXXXXXXXXXXXXX..XXX.. ...             ",
"             ... ..XXXXXXXXXXXXXXXXXXXX.X.XXX.. .. .            ",
"             . . ..XXXXXXXXXXXXXXXXXXXX.X.XXX.. . ..            ",
"             . . ..XXXXXXXXXXXXXXXXXXXX..XXX. . . ..            ",
"             ......XXXXXXXXXXXXXXXXXXXX..XXX. ... ..            ",
"              .....XXXXXXXXXXXXXXXXXXX.X.XXX. . . ..            ",
"              . . .XXXXXXXXXXXXXXXXXXX..XXX.  . . ..            ",
"          .   . ...XXXXXXXXXXXXXXXXXX.X.XXX.  . ...             ",
"          .   .. ...XXXXXXXXXXXXXXXXX..XXX.  ...                ",
"           .  ... ...XXXXXXXXXXXXXXX..XX..  ...                 ",
"            .  ..  ....XXXXXXXXXXXXX....   ...                  ",
"            ... ... .. ..XXXXXXXXXX...   ....                   ",
"             . ... . .......XXXXX...    . ..                    ",
"              .  .................    .....                     ",
"               ..   . .........   .......                       ",
"                 ........................                       ",
"                      ..... .. ..  .....                        ",
"                         ......  ....                           ",
"                             .....                              ",
"                          ......                                ",
"                       ......                                   ",
"                                                                ",
"                                                                ",
"                                                                ",
"                                                                ",
"                                                                ",
"                                                                ",
"                                                                ",
"                                                                ",
"                                                                ",
"                                                                ",
"                                                                ",
"                                                                ",
"                                                                ",
"                                                                ",
"                                                                ",
"                                                                ",
"                                                                ",
"                                                                ",
"                                                                ",
"                                                                ",
"                                                                ",
"                                                                ",
"                                                                ",
"                                                                ",
"                                                                ",
"                                                                ",
"                                                                ",
"                                                                ",
"                                                                ",
"                                                                ",
"                                                                ",
"                                                                ",
"                                                                ",
"                                                                ",
"                                                                ",
"                                                                ",
"                                                                ",
"                                                                ",
"                                                                ",
"                                                                ",
"                                                                ",
"                                                                ",
"                                                                ",
"                                                                ",
"                                                                ",
"                                                                ",
"                                                                ",
"                                                                ",
"                                                                ",
"                                                                ",
"                                                                ",
"                                                                ",
"                                                                ",
"                                                                ",
"                                                                ",
"                                                                ",
"                                                                ",
"                                                                ",
"                                                                ",
"                                                                ",
"                                                                ",
"                                                                ",
"                                                                ",
"                                                                ",
"                                                                ",
"                                                                ",
"                                                                ",
"                                                                ",
"                                                                ",
"                                                                ",
"                                                                ",
"                                                                "
};
