/* XPM */
static char *_fde43c3e8ae41d1d30df5aaf2059d9aUXLAd7vtUCmaQIUt[] = {
/* columns rows colors chars-per-pixel */
"64 128 3 1 ",
"  c None",
". c black",
"X c white",
/* pixels */
"                                                                ",
"                                                                ",
"                                                                ",
"                                                                ",
"                                                                ",
"                                                                ",
"                                                                ",
"                                                                ",
"                                                                ",
"                                                                ",
"                                                                ",
"                                                                ",
"                 .                ..                            ",
"                 .         .   ...  ....                        ",
"                .        .. ...   .....                         ",
"               .       .. ..  ....                              ",
"              .       . ..  ..                                  ",
"              .      . .  ................                      ",
"             .    . . .  .... ...                               ",
"             .   . . . ... ........                             ",
"            .   . .  ...........  ......                        ",
"            .  . . ....XXXX........ . . ..                      ",
"           .   ...... .....XXXXXX. .....  .                     ",
"           .  ... ....XXXXXX.............. ..                   ",
"           . . ... .XXXX.....XXXXXX....  ..  .                  ",
"          .  .. ...XXX..XX.XXXXXXXXX. ..  ..                    ",
"          ........XX..XXX.XXXXXXXXXX.. .. ..                    ",
"          . ........XXXX.XXXXXXXXXXXX.. .. ..                   ",
"          .. .....XXXXX.XXXXXXXXXXXXX. ...  .                   ",
"          .. . ...XXXX.XXXXXXXXXXXXXXX.. ..  .                  ",
"          .  .. .XXXXX.XXXXXXXXXXXXXXX. .... ..                 ",
"          .  ....XXXX.XXXXXXXXXXXXXXXX. .. .. ..                ",
"         .. .....XXXX.XXXXXXXXXXXXXXXX.... .... .               ",
"         .. ....XXXX.XXXXXXXXXXXXXXXXX....  .. ..               ",
"         .. . ..XXXX.XXXXXXXXXXXXXXXXX.. .. .... .              ",
"          ... ..XXXX.XXXXXXXXXXXXXXXXX.. ..  ... .              ",
"          . . ..XXX.XXXXXXXXXXXXXXXXX.X....  . .  .             ",
"          . . ..XXX.XXXXXXXXXXXXXXXXX.X.... ..... .             ",
"          .  ....XX.XXXXXXXXXXXXXXXXX.X. ... . .. .             ",
"          .......XX.XXXXXXXXXXXXXXXXX.X.... ... . .             ",
"           . ....XXX.XXXXXXXXXXXXXXX.X.. .. .. ...              ",
"           .   ...XX.XXXXXXXXXXXXXXX.X. ..  ..  .               ",
"          . .  ...XXX.XXXXXXXXXXXXX.X.. .. ...  .               ",
"        .. . . ....XX.XXXXXXXXXXXXX......  ..   .               ",
"        .  .  . . .X. .XXXXXXXXXXX..... . ..   .                ",
"        .   .  ..... ..XXXXXXXXXX..... ....   .                 ",
"         .  .   .. ..  ..XXXXXXX.....  ...   .                  ",
"          .  ..  .  ... ...........   ....                      ",
"           ..  .. .  ...  .......   .....                       ",
"             ..  .... .........   ..  ..                        ",
"              ..... .. ......   ...  ...                        ",
"                .................  .. .                         ",
"                   ...........   .. ..                          ",
"                    .           .   .                           ",
"                     ....      .   .                            ",
"                             ..  ..                             ",
"                       ......                                   ",
"                                                                ",
"                                                                ",
"                                                                ",
"                                                                ",
"                                                                ",
"                                                                ",
"                                                                ",
"                                                                ",
"                                                                ",
"                                                                ",
"                                                                ",
"                                                                ",
"                                                                ",
"                                                                ",
"                                                                ",
"                                                                ",
"                                                                ",
"                                                                ",
"                                                                ",
"                                                                ",
"                                                                ",
"                                                                ",
"                                                                ",
"                                                                ",
"                                                                ",
"                                                                ",
"                                                                ",
"                                                                ",
"                                                                ",
"                                                                ",
"                                                                ",
"                                                                ",
"                                                                ",
"                                                                ",
"                                                                ",
"                                                                ",
"                                                                ",
"                                                                ",
"                                                                ",
"                                                                ",
"                                                                ",
"                                                                ",
"                                                                ",
"                                                                ",
"                                                                ",
"                                                                ",
"                                                                ",
"                                                                ",
"                                                                ",
"                                                                ",
"                                                                ",
"                                                                ",
"                                                                ",
"                                                                ",
"                                                                ",
"                                                                ",
"                                                                ",
"                                                                ",
"                                                                ",
"                                                                ",
"                                                                ",
"                                                                ",
"                                                                ",
"                                                                ",
"                                                                ",
"                                                                ",
"                                                                ",
"                                                                ",
"                                                                ",
"                                                                ",
"                                                                "
};
