/* XPM */
static char *result[] = {
/* columns rows colors chars-per-pixel */
"64 64 13 1 ",
"  c black",
". c #733E39",
"X c #3C802D",
"o c #589143",
"O c #709B46",
"+ c #63C74D",
"@ c #63EA45",
"# c #69E84C",
"$ c #6DE751",
"% c #B6FFA6",
"& c #B9FFAA",
"* c white",
"= c None",
/* pixels */
"================================================================",
"================================================================",
"================================================================",
"================================================================",
"================================================================",
"================================================================",
"================================================================",
"============================        ============================",
"========================    &&&&&&&&    ========================",
"======================  &&&&&&&&&&&&&&&&  ======================",
"====================  &**&&&&&&&&&&&&&&&&&  ====================",
"==================  &****&&&&&&&&&&&&&&&&&&&  ==================",
"================= &&***&&&&&&&&&&&&&&&&&&&&&&& =================",
"================ &&**&&&&&&&&&&&&&&&&&&&&&&&&&& ================",
"=============== &&**&&&&&&&&&&&&&&&&&&&&&&&&&&&& ===============",
"============== &&**&&&&&&&&&&&&&&&&&&&&&&&&&&&&&& ==============",
"============= &&**&&&&&&&&&&&&&&&&&&&&&&&&&&&&&&&& =============",
"============ &&**&&&&&&&&&&&&&&&&&&&&&&     &&&&&&& ============",
"=========== &&**&&&&&&&&&&&&&&&&&&&&&  @@@@@  &&&&&& ===========",
"=========== &**&&&&&&&&&       &&&&  @@%%%%%@@ &&&&& ===========",
"========== &**&&&&&&&&  @@@@@@@  & @@@%    %%@@ &&&&& ==========",
"========= &&**&&&&&&  @@@@@@@@@@   @@@ @@@@  %@@ &&&$$ =========",
"========= &&&&&&&&& @@@@@@%%%%%@@@@@@@@@@@@@@@@@@ &$$$ =========",
"======== &&&&&&&&& @@@@@@%    @@@@@@@@@@@@@@@@@@@ $$$$$ ========",
"======== &**&&&&& @@@@@@% @@@@@@@@@@  @@@@@@@@@@@@X$$$$ ========",
"======== &**&&&& @@@@@@% @@@@@@@@@@@ & @@@@@@@@@@@X$$$$ ========",
"======= &***&&& @@@@@@% @@@@@@@@@@ + &&  @@@@@@@@@@X$$$$ =======",
"======= &**&&&& @@@@@% @@@@@@@@@  ++ &&&& @@@@@@@@@X$$$$ =======",
"======= &&&&&& @@@@@% @@@@@@@@@@ +++ &&&&& @@@@@@@##X$$$ =======",
"======= &&&&&& @@@%% @@@@@@@@@  & ++ &&&&&$XX@@@@##@@XX$ =======",
"======= &&&&& @@@@  @@@@@@@@@ &&& ++ &&&&$$$$X@##$$@@X$$ =======",
"======= &&&& @@@@@@@@@@@@@@  &&& +++ &&&$$$$$$XXXXXXX$$$ =======",
"======= &&& @@@@@@@@@@@@@  &&&&& +++ &$$$$$$$$$$$$$$$$$$ =======",
"=======    @@@@@@@@@@@@  &&&&&&& +.. $$$$$$$$$$$$$$$$$$$ =======",
"======= &&  @@@@@@@@@  &&&&&&&&& +..X$$$$$$$$$$$$$$$$$$$ =======",
"======= &&&&         &&&&&&&&&&& .XXX$$$$$$$$$$$$$$$$$$$ =======",
"======= &&&&&&&&&&&&&&&&&&&&&&&&XXXXX$$$$$$$$$$$$$$$$$$$ =======",
"======= &&&&&&&&&&&&&&&&&&&&&&$$XXXXXX$$$$$$$$$$$$$$$$$$ =======",
"======== &&&&&&&&&&&&&&&&&&&$$$XXXXXXX$$$$$$$$$$$$$$$$$ ========",
"======== &&&&&&&&&&&&&&&&&$$$$$XXXXOOX$$$$$$$$$$$$$$$$$ ========",
"======== &&&&&&&&&&&&&&&$$$$$$$XOOOooX$$$$$$$$$$$$$$$$$ ========",
"========= &&&&&&&&&&&&&$$$$$$$XoOOooooX$$$$$$$$$$$$$$$ =========",
"========= &&&&&&&&&&&$$$$$$$$$XoooooooX$$$$$$$$$$$$$$$ =========",
"========== &&&&&&&&$$$$$$$$$$XoooooooooX$$$$$$$$$$$$$ ==========",
"=========== &&&&&$$$$$$$$$$$$XoooooooooX$$$$$$$$$$$$ ===========",
"=========== &&$$$$$$$$$$$$$$$XoooooooooX$$$$$$$$$$$$ ===========",
"============ $$$$$$$$$$$$$$$$$XoooooooX$$$$$$$$$$$$ ============",
"============= $$$$$$$$$$$$$$$$$XoooooX$$$$$$$$$$$$ =============",
"============== $$$$$$$$$$$$$$$$$XXXXX$$$$$$$$$$$$ ==============",
"=============== $$$$$$$$$$$$$$$$$$$$$$$$$$$$$$$$ ===============",
"================ $$$$$$$$$$$$$$$$$$$$$$$$$$$$$$ ================",
"================= $$$$$$$$$$$$$$$$$$$$$$$$$$$$ =================",
"==================  $$$$$$$$$$$$$$$$$$$$$$$$  ==================",
"====================  $$$$$$$$$$$$$$$$$$$$  ====================",
"======================  $$$$$$$$$$$$$$$$  ======================",
"========================    $$$$$$$$    ========================",
"============================        ============================",
"================================================================",
"================================================================",
"================================================================",
"================================================================",
"================================================================",
"================================================================",
"================================================================"
};
