/* XPM */
static char *result[] = {
/* columns rows colors chars-per-pixel */
"64 64 7 1 ",
"  c black",
". c #181425",
"X c #F6757A",
"o c #FEE761",
"O c gray",
"+ c white",
"@ c None",
/* pixels */
"@@@@@@@@@@@@@@@@@@@@@@@@@@@@@@@@@@@@@@@@@@@@@@@@@@@@@@@@@@@@@@@@",
"@@@@@@@@@@@@@@@@@@@@@@@@@@@@@@@@@@@@@@@@@@@@@@@@@@@@@@@@@@@@@@@@",
"@@@@@@@@@@@@@@@@@@@@@@@@@@@@@@@@@@@@@@  @@@@@@@@@@@@@@@@@@@@@@@@",
"@@@@@@@@@@@@@@@@@@@@@  @@@@@@@@@@@@@@ OO   @@@@@@@@@@@@@@@@@@@@@",
"@@@@@@@@@@@@@@@@@@   OO    @@@@@@@@  +++OOO @@@@@@@@@@@@@@@@@@@@",
"@@@@@@@@@@@@@@@@@ +++++OOOO @@@@@@ +++XXXXOO @@@@@@@@@@@@@@@@@@@",
"@@@@@@@@@@@@@@@@ ++++++++++O @@@@@ ++XXXXXXO @@@@@@@@@@@@@@@@@@@",
"@@@@@@@@@@@@@@@@ +++XXXXXX++O @@@@ ++XXXXXXO @@@@@@@@@@@@@@@@@@@",
"@@@@@@@@@@@@@@@@ ++XXXXXXXXX+O @@@ ++XX+XXXO @@@@@@@@@@@@@@@@@@@",
"@@@@@@@@@@@@@@@ ++XXXXXXXXXXXO @@@ ++X++X+XO @@@@@@@@@@@@@@@@@@@",
"@@@@@@@@@@@@@@@ ++XXXXXXXX+XX+O @@ ++X++++XO @@@@@@@@@@@@@@@@@@@",
"@@@@@@@@@@@@@@@ ++XXXXXXXX++X+O @@ ++++++XXO @@@@@@@@@@@@@@@@@@@",
"@@@@@@@@@@@@@@@ ++XXXXX+++++X+O       ++XX+O @@@@@@@@@@@@@@@@@@@",
"@@@@@@@@@@@@@@@@ ++XXXXX++++++++++++OO ++OO @@@@@@@@@@@@@@@@@@@@",
"@@@@@@@@@@@@@@@@ +++XXXX++++++++++++++O O  @@@@@@@@@@@@@@@@@@@@@",
"@@@@@@@@@@@@@@@@ ++++XXX+++++++++++++++O @@@@@@@@@@@@@@@@@@@@@@@",
"@@@@@@@@@@@@@@@@@ ++++++++++++++++++++++O @@@@@@@@@@@@@@@@@@@@@@",
"@@@@@@@@@@@@@@@@@@        +++++++++++++++O @@@@@@@@@@@@@@@@@@@@@",
"@@@@@@@@@@@@@@@@@@@@@@@ ++++++++ ++++++ +O @@@@@@@@@@@@@@@@@@@@@",
"@@@@@@@@@@@@@@@@@@@@@@@ ++++++++ ++++++ ++O @@@@  @@@@@@@@@@@@@@",
"@@@@@@@@@@@@@@@@@@@@@@@ +++++++++++++++++++O      @@@@@@@@@@@@@@",
"@@@@@@@@@@@@@@@@@@      ++++++++++++++++++++OOOO @@@@@@@@@@@@@@@",
"@@@@@@@@@@@@@@@@@@ oooo +++++++++++++++++++++++O @@@@@@@@@@@@@@@",
"@@@@@@@@@@@@@@@@@ .  ooo ++++++++++++++++++++++O @@@@@@@@@@@@@@@",
"@@@@@@@@@@@@@@@@@ ... oo ++++++++++++++++++++++O @@@@@@@@@@@@@@@",
"@@@@@@@@@@@@@@@@@ .... oo +++++++++++++++++++OO @@@@@@@@@@@@@@@@",
"@@@@@@@@@@@@@@@@@ .....     ++++++++++++++++O  @@@@@@@@@@@@@@@@@",
"@@@@@@@@@@@@@@@@@ .....      ++++  +++++++++ @@@@@@@@@@@@@@@@@@@",
"@@@@@@@@@@@@@@@@@ .... +++OO   ++++         @@@@@@@@@@@@@@@@@@@@",
"@@@@@@@@@@@@@@@@@ .... ++++O   ++++++++++O  @@@@@@@@@@@@@@@@@@@@",
"@@@@@@@@@@@@@@@@@ ... ++++++O   +++++++++O   @@@@@@@@@@@@@@@@@@@",
"@@@@@@@@@@@@@@@@@ .. +++++++++O  +++++++++O  @@@@@@@@@@@@@@@@@@@",
"@@@@@@@@@@@@@@@@@ .. ++++++++++O  ++++++++O    @@@@@@@@@@@@@@@@@",
"@@@@@@@@@@@@@@@@@ .. +++++++       +++++++O  +O @@@@@@@@@@@@@@@@",
"@@@@@@@@@@@@@@@@@ .. ++++++ +++++    +++++O +++O @@@@@@@@@@@@@@@",
"@@@@@@@@@@@@@@@@@ .. +++   ++++++OOOO ++++O +++O @@@@@@@@@@@@@@@",
"@@@@@@@@@@@@@@@@@ .. ++++++++++++++OO ++++O +++O @@@@@@@@@@@@@@@",
"@@@@@@@@@@@@@@@@@ .. +++++++++++++O  +++++O +++O @@@@@@@@@@@@@@@",
"@@@@@@@@@@@@@@@@@ .. +++++++++++++OOO ++++O  +O @@@@@@@@@@@@@@@@",
"@@@@@@@@@@@@@@@@@ ... ++++++++++OOO   ++++O    @@@@@@@@@@@@@@@@@",
"@@@@@@@@@@@@@@@@@ ...  +++++++++    ++++++O  @@@@@@@@@@@@@@@@@@@",
"@@@@@@@@@@@@@@@@@ ....             ++++++++O  @@@@@@@@@@@@@@@@@@",
"@@@@@@@@@@@@@@@@@ .... ++++++    +++++++++++O @@@@@@@@@@@@@@@@@@",
"@@@@@@@@@@@@@@@@@ .... ++++     ++++++++++++O @@@@@@@@@@@@@@@@@@",
"@@@@@@@@@@@@@@@@@ .... ++    +++++++++++++++O @@@@@@@@@@@@@@@@@@",
"@@@@@@@@@@@@@@@@@ ....     +++++++++++++++++O @@@@@@@@@@@@@@@@@@",
"@@@@@@@@@@@@@@@@@@ ...   +++++++++++++++++++O @@@@@@@@@@@@@@@@@@",
"@@@@@@@@@@@@@@@@@@@  . ++++++++++++++++++++++O @@@@@@@@@@@@@@@@@",
"@@@@@@@@@@@@@@@@@@@@@  ++++++++++++++++++++++O @@@@@@@@@@@@@@@@@",
"@@@@@@@@@@@@@@@@@@@@@@ ++++++++++++++++++++++O @@@@@@@@@@@@@@@@@",
"@@@@@@@@@@@@@@@@@@@@@@ ++++++++++++++++++++++O @@@@@@@@@@@@@@@@@",
"@@@@@@@@@@@@@@@@@@@@@@ ++++++++++++++++++++++O @@@@@@@@@@@@@@@@@",
"@@@@@@@@@@@@@@@@@@@@@@ +++++++++++++++++++++O @@@@@@@@@@@@@@@@@@",
"@@@@@@@@@@@@@@@@@@@@@@ +++++++++O   ++++++++O @@@@@@@@@@@@@@@@@@",
"@@@@@@@@@@@@@@@@@@@@@@ ++++++++O @@@ +++++++O @@@@@@@@@@@@@@@@@@",
"@@@@@@@@@@@@@@@@@@@@@@ ++++++++O @@@@ ++++++O @@@@@@@@@@@@@@@@@@",
"@@@@@@@@@@@@@@@@@@@@@@ +++++++O @@@@@ ++++++O @@@@@@@@@@@@@@@@@@",
"@@@@@@@@@@@@@@@@@@@@@@ +++++++O @@@@@ ++++++O @@@@@@@@@@@@@@@@@@",
"@@@@@@@@@@@@@@@@@@@@@@@ +++++O @@@@@@@ ++++O @@@@@@@@@@@@@@@@@@@",
"@@@@@@@@@@@@@@@@@@@@@@@ +++++O @@@@@@@ ++++O @@@@@@@@@@@@@@@@@@@",
"@@@@@@@@@@@@@@@@@@@@@@@@ ++++O @@@@@@@@ ++O @@@@@@@@@@@@@@@@@@@@",
"@@@@@@@@@@@@@@@@@@@@@@@@ ++++O @@@@@@@@ ++O @@@@@@@@@@@@@@@@@@@@",
"@@@@@@@@@@@@@@@@@@@@@@@@ +++++O @@@@@@@ +++O @@@@@@@@@@@@@@@@@@@",
"@@@@@@@@@@@@@@@@@@@@@@@@@        @@@@@@@      @@@@@@@@@@@@@@@@@@"
};
