/* XPM */
static char *c7566b35723f4388cc95fe77470ae4e5tSXhZXBj39ue7iz0[] = {
/* columns rows colors chars-per-pixel */
"40 40 7 1 ",
"  c None",
". c black",
"X c #181425",
"o c #FEE761",
"O c #D9D9DC",
"+ c #EAEAED",
"@ c white",
/* pixels */
"                                        ",
"                                        ",
"                                        ",
"             +@@        @+OO            ",
"            +@@@@      @@@++O           ",
"           +@@@@@@@@@@+@@@@@+O          ",
"           +@@@+O@@@@@@@@@@@+O          ",
"            +++O@@@@@@@@@@@+O           ",
"             +O@@@@@@@@@@@+O            ",
"              @@.@@@@.@@OOO             ",
"             @@@.@@@@.@@+O              ",
"         .. @@@@@@@@@@@@+OXXX           ",
"         ..@@@@@@@@@@@@@+OoooX          ",
"          +@@@@@@@@@@@@+OOooXXX         ",
"           +@@@@@@@@@@+OOOoXXXX         ",
"            ++++@@@@++OOOO.XXXX         ",
"              .+@@@@@@+O.++OXXX         ",
"             @.@@@@@@@@@@@+OXXX         ",
"            @@.@@@@@@@@@@@+OXXX         ",
"            @@.@@@@@@@@@@++XXXX         ",
"            @@.@@@@+@@@@@+OXXXX         ",
"            @@.@@@+@@@@@+OOXXXX         ",
"            @@.@++@@@@@+O.OXXXX         ",
"             @.O@@@@@@++OO.XXXX         ",
"             @+O@@@@@+OO@+OXXXX         ",
"              @O+@@++O@@@+OXXXX         ",
"              @@O++OO@@@@+OXXXX         ",
"              @@@OO@@@@@@+OXXXX         ",
"              @@@@@@@@@@@+OXXX          ",
"              @@@@@@@@@@@++O@           ",
"             @@@@@@@@@@@@@@@@           ",
"            @@@@@@@@  @@@@@@@@          ",
"           @@@@@@@@   @@@@@@@@@         ",
"          @@@@@@@@    @@@@@@@@@@        ",
"        @@@@@@@@@       @@@@@@@@        ",
"      @@@@@@@@@@         @@@@@@         ",
"       @@@@@@@@            @@@          ",
"         @@@@@             @@           ",
"           @               @            ",
"                                        "
};
