/* XPM */
static char *f9ffbc081cca489ec158826cc061a580jweCfJ71jinUCIis[] = {
/* columns rows colors chars-per-pixel */
"40 40 7 1 ",
"  c None",
". c black",
"X c #181425",
"o c #FEE761",
"O c #D9D9DC",
"+ c #EAEAED",
"@ c white",
/* pixels */
"                                        ",
"                                        ",
"                                        ",
"             +@@        @+OO            ",
"            +@@@@      @@@++O           ",
"           +@@@@@@@@@@+@@@@@+O          ",
"           +@@@+O@@@@@@@@@@@+O          ",
"            +++O@@@@@@@@@@@+O           ",
"             +O@@@@@@@@@@@+O            ",
"              @@.@@@@.@@OOO             ",
"             @@@.@@@@.@@+O              ",
"         .. @@@@@@@@@@@@+OXXX           ",
"         ..@@@@@@@@@@@@@+OoooX          ",
"          +@@@@@@@@@@@@+OOooXXX         ",
"           +@@@@@@@@@@+OOOoXXXX         ",
"            ++++@@@@++OOOO.XXXX         ",
"              .+@@@@@@+O.++OXXX         ",
"             @O@@@@@@@@@@@+OXXX         ",
"            @@O+@@@@@@@@@@+OXXX         ",
"            @@O++@@@@@@@+++XXXX         ",
"            @@.O++++++++++OXXXX         ",
"             @.@OOOOOOOOOOOXXXX         ",
"             @.@@@@@@@@@+.OXXXX         ",
"              .@@@@@@@@@+O.XXXX         ",
"              +@@@@@@@@@@+OXXXX         ",
"              @@@@@@@@@@@+OXXXX         ",
"              @@@@@@@@@@@+OXXXX         ",
"       @      @@@@@@@@@@@+OXXXX         ",
"       @@     OOO@@@@@@@@+OXXX          ",
"       @@@@@@@@@@@@@@@@@@++OOOOOO       ",
"       @@@@@@@@@@@@@@@@@@@@@@@@@+O      ",
"       @@@@@@@@@@@@+++@@@@@@@@@@+O      ",
"       @@@@@@@@@@+++  ++++@@@@@@+O      ",
"        +++++++++         +++++++O      ",
"                                +O      ",
"                                 O      ",
"                                        ",
"                                        ",
"                                        ",
"                                        "
};
