/* XPM */
static char *_0177c91a3b246e7d1356a0cf72658b1vOJHErogrEPnWfnC[] = {
/* columns rows colors chars-per-pixel */
"40 40 7 1 ",
"  c None",
". c black",
"X c #181425",
"o c #FEE761",
"O c #D9D9DC",
"+ c #EAEAED",
"@ c white",
/* pixels */
"                                        ",
"                                        ",
"             +@@        @+OO            ",
"            +@@@@      @@@++O           ",
"           +@@@@@@@@@@+@@@@@+O          ",
"           +@@@+O@@@@@@@@@@@+O          ",
"            +++O@@@@@@@@@@@+O           ",
"             +O@@@@@@@@@@@+O            ",
"              @@.@@@@.@@OOO             ",
"             @@@.@@@@.@@+O              ",
"         .. @@@@@@@@@@@@+OXXX           ",
"         ..@@@@@@@@@@@@@+OoooX          ",
"          +@@@@@@@@@@@@+OOooXXX         ",
"           +@@@@@@@@@@+OOOoXXXX         ",
"            ++++@@@@++OOOO.XXXX         ",
"               ++@@++OOOO.OXXXX         ",
"              .+@@@@@@+O.++OXXX         ",
"             O.@@@@@@@@+.@+OXXX         ",
"            +O.@@@@@@@@+.@@+OXX         ",
"           @+O.@@@@@@@@+.@@@OXX         ",
"           @+O.@@@@@@@@+.@@@+OX         ",
"          @@+O.@@@@@@@@+.@@@@OX         ",
"          @@+O.@@@@@@@@@+.@@@+O         ",
"         @@@+O.@@@@@@@@@+O.@@+O         ",
"         @@@+ +@@@@@@@@@@+O@@+O         ",
"         @@@  @@@@@@@@@@@+OX@+O         ",
"         @@   @@@@@@@@@@@+OXX+X         ",
"              @@@@@@@@@@@+OXXXX         ",
"              @@@@@@@@@@@+OXXX          ",
"              @@@@@@@@@@@+OXX           ",
"              @@@@@@@@@@@+OX            ",
"              @@@@@@@@@@@+O             ",
"              @@@+O   @@@+O             ",
"              @@@+O   @@@+O             ",
"              @@+O     @@+O             ",
"              @@+O     @@+O             ",
"              @@+O     @@+O             ",
"             @@++O     @++O             ",
"            OOOOO     OOOOO             ",
"                                        "
};
