/* XPM */
static char *aa1922e31c364af898b6a04af3b48ff0rjRpqsSq74gFhcRj[] = {
/* columns rows colors chars-per-pixel */
"40 40 12 1 ",
"  c None",
". c black",
"X c #262B44",
"o c #3A4466",
"O c #F77622",
"+ c #3E8948",
"@ c #63C74D",
"# c #FEAE34",
"$ c #FFDC33",
"% c #FEE761",
"& c gray86",
"* c white",
/* pixels */
"                                        ",
"                  &&&                   ",
"                 &****                  ",
"                &******                 ",
"               &******&                 ",
"               &******&&&&&             ",
"               &******&&*****           ",
"               &&&&***********          ",
"               ***************          ",
"              *****************         ",
"             ******************         ",
"       ..   ******.***********&         ",
"       ..*********.**********&          ",
"        &*******************&           ",
"         &***********&&&**&&XXX         ",
"          &&********&&&&&+@@@@+X        ",
"            &&&&&########++++++X        ",
"              ####$$$$$$#XXXXXXX        ",
"              ###OO$%%%$#XXXoooX        ",
"              ####O$%%...#XXoooX        ",
"              ####O$%...$$#XXooX        ",
"             ##OOOO$..##$%$#XooX        ",
"             ##$O$%..$##$%$#XooX        ",
"             ##$O$%..$##$%$#XooX        ",
"             ##$O$%..$######XooX        ",
"             ##$O$%..$&****&XooX        ",
"             ##$O$%%.$&****&XooX        ",
"             ##$O$%%%.&****&XooX        ",
"             ##$O$%%%$&****&XooX        ",
"             ##$O$%%%$&****&XooX        ",
"             ##$O$%%%%$&**&&XooX        ",
"             ###$$%%%%%$&&&XXooX        ",
"              ##$$%%%%%%$#XXoooX        ",
"              ###$$%%%%%$#XXoooX        ",
"               ##$$%%%%%$#XXooX         ",
"               ##$$%%%%%$#XXXX          ",
"               ##$$%%%%$#               ",
"              ###$$$$$$#                ",
"              ##########                ",
"                                        "
};
