/* XPM */
static char *_07a6ec15e954de5ca60d4a5ec3ee8254HhJlRUEKWSxNsOy[] = {
/* columns rows colors chars-per-pixel */
"40 40 12 1 ",
"  c None",
". c black",
"X c #262B44",
"o c #3A4466",
"O c #F77622",
"+ c #3E8948",
"@ c #63C74D",
"# c #FEAE34",
"$ c #FFDC33",
"% c #FEE761",
"& c gray86",
"* c white",
/* pixels */
"                                        ",
"                   &&&                  ",
"                  ****&                 ",
"                 ******&                ",
"                 &******&               ",
"             &&&&&******&               ",
"           *****&&******&               ",
"          ***********&&&&               ",
"          ***************               ",
"         *****************              ",
"         ******************             ",
"         &***********.******   ..       ",
"          &**********.*********..       ",
"           &*******************&        ",
"         XXX&&**&&&***********&         ",
"        X+@@@@+&&&&&********&&          ",
"        X++++++########&&&&&            ",
"        XXXXXXX#$$$$$$####              ",
"        XoooXXX#$%%%$OO###              ",
"        XoooXX#...%%$O####              ",
"        XooXX#$$...%$O####              ",
"        XooX#$%$##..$OOOO##             ",
"        XooX#$%$##$..%$O$##             ",
"        XooX#$%$##$..%$O$##             ",
"        XooX######$..%$O$##             ",
"        XooX&****&$..%$O$##             ",
"        XooX&****&$.%%$O$##             ",
"        XooX&****&.%%%$O$##             ",
"        XooX&****&$%%%$O$##             ",
"        XooX&****&$%%%$O$##             ",
"        XooX&&**&$%%%%$O$##             ",
"        XooXX&&&$%%%%%$$###             ",
"        XoooXX#$%%%%%%$$##              ",
"        XoooXX#$%%%%%$$###              ",
"         XooXX#$%%%%%$$##               ",
"          XXXX#$%%%%%$$##               ",
"               #$%%%%$$##               ",
"                #$$$$$$###              ",
"                ##########              ",
"                                        "
};
