/* XPM */
static char *_f5a1e6ed3874f0b8ee17298a5b640c06st7ZBtur40w2Eof[] = {
/* columns rows colors chars-per-pixel */
"40 40 7 1 ",
"  c None",
". c black",
"X c #181425",
"o c #FEE761",
"O c #D9D9DC",
"+ c #EAEAED",
"@ c white",
/* pixels */
"                                        ",
"                                        ",
"                                        ",
"             +@@        @+OO            ",
"            +@@@@      @@@++O           ",
"           +@@@@@@@@@@+@@@@@+O          ",
"           +@@@+O@@@@@@@@@@@+O          ",
"            +++O@@@@@@@@@@@+O           ",
"             +O@@@@@@@@@@@+O            ",
"              @@.@@@@.@@OOO             ",
"             @@@.@@@@.@@+O              ",
"         .. @@@@@@@@@@@@+OXXX           ",
"         ..@@@@@@@@@@@@@+OoooX          ",
"          +@@@@@@@@@@@@+OOooXXX         ",
"           +@@@@@@@@@@+OOOoXXXX         ",
"            ++++@@@@++OOOO.XXXX         ",
"      @@      .+@@@@@@+O.OOOOOO         ",
"     @@@@@@@@O.@@@@@@@@+.@@@@@+O        ",
"     @@@@@@@+O.@@@@@@@@+.@@@@@@+O       ",
"      @@@@@@+O.@@@@@@@@+.@@@@@@@+O      ",
"         @@@+O.@@@@@@@@+.++XXXX@+O      ",
"              .@@@@@@@@+.++XXXX +O      ",
"              .@@@@@@@@@+.+XXXX         ",
"              .@@@@@@@@@+O.XXXX         ",
"              +@@@@@@@@@@+OXXXX         ",
"              @@@@@@@@@@@+OXXXX         ",
"              @@@@@@@@@@+OXXXXX         ",
"              @@@@@@@@@@+OXXXXX         ",
"        @@    @@@@@@@@@@++XXXX          ",
"        @@@    @@@@@@@@@+OOOOO          ",
"        @@@@@@@@@@@@@@@+OOOOOO          ",
"        @@@@@@@@@@@@@@+OOOOOOO          ",
"        @@@@@@@@@@@@++OOOOOOOO          ",
"        @@@@@@@@@@@+OO OOOOOOO          ",
"                           OOO          ",
"                            OO          ",
"                                        ",
"                                        ",
"                                        ",
"                                        "
};
