/* XPM */
static char *result[] = {
/* columns rows colors chars-per-pixel */
"64 64 7 1 ",
"  c black",
". c #181425",
"X c #F6757A",
"o c #FEE761",
"O c gray",
"+ c white",
"@ c None",
/* pixels */
"@@@@@@@@@@@@@@@@@@@@@@@@@@@@@@@@@@@@@@@@@@@@@@@@@@@@@@@@@@@@@@@@",
"@@@@@@@@@@@@@@@@@@@@@@@@  @@@@@@@@@@@@@@@@@@@@@@@@@@@@@@@@@@@@@@",
"@@@@@@@@@@@@@@@@@@@@@   OO @@@@@@@@@@@@@@  @@@@@@@@@@@@@@@@@@@@@",
"@@@@@@@@@@@@@@@@@@@@ +++++O  @@@@@@@@    OO   @@@@@@@@@@@@@@@@@@",
"@@@@@@@@@@@@@@@@@@@ ++XXXX++O @@@@@@ ++++++OOO @@@@@@@@@@@@@@@@@",
"@@@@@@@@@@@@@@@@@@@ +XXXXXX+O @@@@@ ++++++++++O @@@@@@@@@@@@@@@@",
"@@@@@@@@@@@@@@@@@@@ +XXXXXX+O @@@@ +++XXXXXX++O @@@@@@@@@@@@@@@@",
"@@@@@@@@@@@@@@@@@@@ +XXX+XX+O @@@ ++XXXXXXXXX+O @@@@@@@@@@@@@@@@",
"@@@@@@@@@@@@@@@@@@@ +X+X++X+O @@@ +XXXXXXXXXXX+O @@@@@@@@@@@@@@@",
"@@@@@@@@@@@@@@@@@@@ +X++++X+O @@ ++XX+XXXXXXXX+O @@@@@@@@@@@@@@@",
"@@@@@@@@@@@@@@@@@@@ +XX++++OO @@ ++X++XXXXXXXX+O @@@@@@@@@@@@@@@",
"@@@@@@@@@@@@@@@@@@@ ++XX++       ++X+++++XXXXX+O @@@@@@@@@@@@@@@",
"@@@@@@@@@@@@@@@@@@@@ ++++ +++++++++OO+++XXXXX+O @@@@@@@@@@@@@@@@",
"@@@@@@@@@@@@@@@@@@@@@  + +++++++++++O+++XXXX++O @@@@@@@@@@@@@@@@",
"@@@@@@@@@@@@@@@@@@@@@@@ ++++++++++++OO++XXX+++O @@@@@@@@@@@@@@@@",
"@@@@@@@@@@@@@@@@@@@@@@ +++++++++++++++OOOOOOOO @@@@@@@@@@@@@@@@@",
"@@@@@@@@@@@@@@@@@@@@@ ++++++++++++++++        @@@@@@@@@@@@@@@@@@",
"@@@@@@@@@@@@@@@@@@@@@ ++ ++++++ +++++++O @@@@@@@@@@@@@@@@@@@@@@@",
"@@@@@@@@@@@@@@  @@@@ +++ ++++++ +++++++O @@@@@@@@@@@@@@@@@@@@@@@",
"@@@@@@@@@@@@@@      +++++++++++++++++++O @@@@@@@@@@@@@@@@@@@@@@@",
"@@@@@@@@@@@@@@@ +++++++++++++++++++++++O      @@@@@@@@@@@@@@@@@@",
"@@@@@@@@@@@@@@@ +++++++++++++++++++++++O oooo @@@@@@@@@@@@@@@@@@",
"@@@@@@@@@@@@@@@ ++++++++++++++++++++++O ooo  . @@@@@@@@@@@@@@@@@",
"@@@@@@@@@@@@@@@ ++++++++++++++++++++++O oo ... @@@@@@@@@@@@@@@@@",
"@@@@@@@@@@@@@@@@ +++++++++++++++++++OO oo .... @@@@@@@@@@@@@@@@@",
"@@@@@@@@@@@@@@@@@  ++++++++++++++++O     ..... @@@@@@@@@@@@@@@@@",
"@@@@@@@@@@@@@@@@@@@ +++++++++  +++O      ..... @@@@@@@@@@@@@@@@@",
"@@@@@@@@@@@@@@@@@@@@         OO++   ++++O .... @@@@@@@@@@@@@@@@@",
"@@@@@@@@@@@@@@@@@@@@  OOOOOOO++++   ++++O .... @@@@@@@@@@@@@@@@@",
"@@@@@@@@@@@@@@@@@@@   O+++++++++   ++++++O ... @@@@@@@@@@@@@@@@@",
"@@@@@@@@@@@@@@@@@@@  O+++++++++  +++++++++O .. @@@@@@@@@@@@@@@@@",
"@@@@@@@@@@@@@@@@@    O++++++++  ++++++++++O .. @@@@@@@@@@@@@@@@@",
"@@@@@@@@@@@@@@@@ +O  O+++++++       ++++++O .. @@@@@@@@@@@@@@@@@",
"@@@@@@@@@@@@@@@ +++O O+++++    +++++ +++++O .. @@@@@@@@@@@@@@@@@",
"@@@@@@@@@@@@@@@ +++O O++++ ++++++++++   ++O .. @@@@@@@@@@@@@@@@@",
"@@@@@@@@@@@@@@@ +++O O++++ +++++++++++++++O .. @@@@@@@@@@@@@@@@@",
"@@@@@@@@@@@@@@@ +++O O+++++  +++++++++++++O .. @@@@@@@@@@@@@@@@@",
"@@@@@@@@@@@@@@@@ +O  O++++ +++++++++++++++O .. @@@@@@@@@@@@@@@@@",
"@@@@@@@@@@@@@@@@@    O++++   ++++++++++++O ... @@@@@@@@@@@@@@@@@",
"@@@@@@@@@@@@@@@@@@@  O++++++    OOOOOOOOO  ... @@@@@@@@@@@@@@@@@",
"@@@@@@@@@@@@@@@@@@  O++++++++             .... @@@@@@@@@@@@@@@@@",
"@@@@@@@@@@@@@@@@@@ O+++++++++++    +++++O .... @@@@@@@@@@@@@@@@@",
"@@@@@@@@@@@@@@@@@@ +++++++++++++     +++O .... @@@@@@@@@@@@@@@@@",
"@@@@@@@@@@@@@@@@@@ ++++++++++++++++    +O .... @@@@@@@@@@@@@@@@@",
"@@@@@@@@@@@@@@@@@@ ++++++++++++++++++     .... @@@@@@@@@@@@@@@@@",
"@@@@@@@@@@@@@@@@@@ ++++++++++++++++++++   ... @@@@@@@@@@@@@@@@@@",
"@@@@@@@@@@@@@@@@@ ++++++++++++++++++++++O .  @@@@@@@@@@@@@@@@@@@",
"@@@@@@@@@@@@@@@@@ ++++++++++++++++++++++O  @@@@@@@@@@@@@@@@@@@@@",
"@@@@@@@@@@@@@@@@  ++++++++++++++++++++++O @@@@@@@@@@@@@@@@@@@@@@",
"@@@@@@@@@@@@@@@@  ++++++++++++++++++++++O @@@@@@@@@@@@@@@@@@@@@@",
"@@@@@@@@@@@@@@@@  ++++++++++++++++++++++O @@@@@@@@@@@@@@@@@@@@@@",
"@@@@@@@@@@@@@@@@ +++++++++++++++++++++++O @@@@@@@@@@@@@@@@@@@@@@",
"@@@@@@@@@@@@@@@@ ++++++++O       ++++++++O @@@@@@@@@@@@@@@@@@@@@",
"@@@@@@@@@@@@@@@@ +++++++O @@@@@@@ +++++++O @@@@@@@@@@@@@@@@@@@@@",
"@@@@@@@@@@@@@@@ +++++++O @@@@@@@@@ ++++++O @@@@@@@@@@@@@@@@@@@@@",
"@@@@@@@@@@@@@@@ ++++++O @@@@@@@@@@@ +++++O @@@@@@@@@@@@@@@@@@@@@",
"@@@@@@@@@@@@@@@ +++++O @@@@@@@@@@@@@ ++++O @@@@@@@@@@@@@@@@@@@@@",
"@@@@@@@@@@@@@@@ ++++O @@O@@@@@@@@@@@@ ++OO @@@@@@@@@@@@@@@@@@@@@",
"@@@@@@@@@@@@@@@ +++O @@@@@@@@@@@@@@@@@ O  @@@@@@@@@@@@@@@@@@@@@@",
"@@@@@@@@@@@@@@  OOO @@@@@@@@@@@@@@@+@   @@@@@@@@@@@@@@@@@@@@@@@@",
"@@@@@@@@@@@@@@@@   @@@@@@@@@@@@@@@@@@@@@@@@@@@@@@@@@@@@@@@@@@@@@",
"@@@@@@@@@@@@@@@@@@@@@@@@@@@@@@@@@@@@@@@@@@@@@@@@@@@@@@@@@@@@@@@@",
"@@@@@@@@@@@@@@@@@@@@@@@@@@@@@@@@@@@@@@@@@@@@@@@@@@@@@@@@@@@@@@@@",
"@@@@@@@@@@@@@@@@@@@@@@@@@@@@@@@@@@@@@@@@@@@@@@@@@@@@@@@@@@@@@@@@"
};
