/* XPM */
static char *result[] = {
/* columns rows colors chars-per-pixel */
"64 64 5 1 ",
"  c #ECB848",
". c #F9C962",
"X c #FFD579",
"o c #FCDE9F",
"O c #FFEEC9",
/* pixels */
"XXXXXXXXXXXXXXXXXX  XXXXXXXXXoooXXXXXXXXXXXXX  XXXXXXXXX........",
"XXXXXXXXXXXXX     ..XXXXXXoooXXXXXXXXXX      XXXXXXX....     XXX",
"XXXXXXXXXXXXX     ..XXXXXXoooXXXXXXXXXX      XXXXXXX....     XXX",
"XXXXXXXXXXXX .....XXXXXXooXXXXX        XXXXX........    XXXXX..X",
"XXXXXXXX    .XXXXXXXXoooXXXX   ......XXXXX.....     XXXXXXXXX..X",
"XXXXXXXX    .XXXXXXXXoooXXXX   ......XXXXX.....     XXXXXXXXX..X",
"XXXXXXX ....XXXXXXoooXX     ...XXXXXXXXX....   XXXXXXXX......XXX",
"XXXXXXX ....XXXXXXoooXX     ...XXXXXXXXX....   XXXXXXXX......XXX",
"XXXXX  ...XXXXXXooXXX  .....XXXXXXXXO.....  XXXXXXXX......XXXXXX",
"XXXXX  .XXXXXoooXXXX .....XXXXXXXXXX....  XXXXXXXX.....XooooXXXX",
"XXXXX  .XXXXXoooXXXX .....XXXXXXXXXX....  XXXXXXXX.....XooooXXXX",
"XXXX ...XXXXXooXXX  ...XXXXXXXXXXX...   XXXXXXX.....XXXoXXXXXXXX",
"XXXX ..XXXXXoXXX  ...XXXXXXXXXXX.... XXXXXXXX.....XXoooXXXXXXXXX",
"XXXX ..XXXXXoXXX  ...XXXXXXXXXXX.... XXXXXXXX.....XXoooXXXXXXXXX",
"XX  ...XXXooXXX ....XXXXXXXXXXX...  XXXXXXXX...XXXooXXXX.....XXX",
"XX  ...XXXooXXX ....XXXXXXXXXXX...  XXXXXXXX...XXXooXXXX.....XXX",
"XX  .XXXXXooX  .....XXXXXXooX.....  XXXXXXXX.XXXooXXXXX...XXXXXX",
"  ..XXXXooXXX  ...XXXXXXooXXX...  XXXXXXXX...XXoXXXXX...XXXXXXXX",
"  ..XXXXooXXX  ...XXXXXXooXXX...  XXXXXXXX...XXoXXXXX...XXXXXXXX",
"XXXXXXXXooXX ...XXXXXXXoXXXX... XXXXXXXX....XooXXXXX...XXXXXXXX ",
"XXXXXXXoXXXX ...XXXXXooXXX...  XXXXXXXXX..XXoXXXXXXX.XXXXXXXX  X",
"XXXXXXXoXXXX ...XXXXXooXXX...  XXXXXXXXX..XXoXXXXXXX.XXXXXXXX  X",
"XXXXXooXXXOO ..XXXXXXooXXX...  XXXXXXXX...XXXXXXXX...XXXXXXXX  X",
"XXXXXooXXXOO ..XXXXXXooXXX...  XXXXXXXX...XXXXXXXX...XXXXXXXX  X",
"XXXXoXXXXX  ...XXXXXXooX.... XXXXXXXX...XXXXXXXXXX...XXXXXXX XXX",
"XXXXoXXXXX  ...XXXXXXXXX..  XXXXXXXXX..XXXXXXXXX....XXXXXXXX XXX",
"XXXXoXXXXX  ...XXXXXXXXX..  XXXXXXXXX..XXXXXXXXX....XXXXXXXX XXX",
"XXooXXXXXX  .XXXXXXXXXX...  XXXXXXXX...XXXXXXXX...XXXXXXXX  .XXX",
"XXooXXXX  ...XXXXXXXXXXX..  XXXXXX...XXXXXXXXXX.OOXXXXXXXX  .XXX",
"XXooXXXX  ...XXXXXXXXXXX..  XXXXXX...XXXXXXXXXX.OOXXXXXXXX  .XXX",
"XXXXXXX ....XXXXXXXXXXX...XXXXXX....XXXXXXXXX...XXXXXXXX  ...XXX",
"XXXXXXX ....XXXXXXXXXXX...XXXXXX....XXXXXXXXX...XXXXXXXX  ...XXX",
"XXXXXXX...XXXXXX....XXX...XXXXXXXXXXXXXXXXXX...XXXXXXXXX  ...XXX",
"XXXXXXX...XXXXXX..XXXXX...XXXXXXXXXXOXXXXXXX...XXXXXXXX ....XXXX",
"XXXXXXX...XXXXXX..XXXXX...XXXXXXXXXXOXXXXXXX...XXXXXXXX ....XXXX",
"XXXXX...XXXXXXX.XXXXX.....XXXXXXXXXXXXXXXX...XXXXXXXXXX ....XXXX",
"XXXX...XXXXXXXX.XXXXo...XXXXXXXXXXXXXXXXXX...XXXXXXXX  .....XXXX",
"XXXX...XXXXXXXX.XXXXo...XXXXXXXXXXXXXXXXXX...XXXXXXXX  .....XXXX",
"XX...XXXXXXXX..XXXooX...XXXXXXXXXXXXXXXX....XooXXXXXX  ...XXXXXX",
"XX...XXXXXXXX..XXXooX...XXXXXXXXXXXXXXXX....XooXXXXXX  ...XXXXXX",
"XXXXXXXXXXXX.XXXooXX....XXXXXXXXXXXXXXXX....XooXXXXXO  ...XXoXXX",
"XXXXXXXXXX..XXXoooXX...XXXXXXXXX  XXXXX...XXoXXXXXXX ...XXXXoXXX",
"XXXXXXXXXX..XXXoooXX...XXXXXXXXX  XXXXX...XXoXXXXXXX ...XXXXoXXX",
"XXXXXXXX..XXXXXoXXXX...XXXXXXXX XXXXX...XXoooXXXXXXX ...XXooXXXX",
"XXXXXXX.XXXXXooXXXXX.XXXXXXXX  XXXXX...XooooXXXXXX  ...XooXXXXXX",
"XXXXXXX.XXXXXooXXXXX.XXXXXXXX  XXXXX...XooooXXXXXX  ...XooXXXXXX",
"XXXXXXX.XXXXoXXXXX..XXXXXXXX XXX.....XXoXXXXXXXX  .....oXXXXX..X",
"XXXXXXX.XXXXoXXXXX..XXXXXXXX XXX.....XXoXXXXXXXX  .....oXXXXX..X",
"XXXXX..XXXooXXXO....XXXXXXXX XX.....XooXXXXXX   ....XooXXXXXX..X",
"XXXXX..XooXXXXX...XXXXXX    ....XXXXoXXXXX   .....XXoXXXXXXX ..X",
"XXXXX..XooXXXXX...XXXXXX    ....XXXXoXXXXX   .....XXoXXXXXXX ..X",
"XXXX.XXoooXXX..XXXXXXXX XX.....XooooXXX   ......XXooXXXXXX  .XXX",
"XXXX.XXXXXXX.XXXXXXXX  .....XoooXXXXXXX .....XXoooXXXXXX  ...XXX",
"XXXX.XXXXXXX.XXXXXXXX  .....XoooXXXXXXX .....XXoooXXXXXX  ...XXX",
"XX...XXX....XXXXXX   .....XXoXXXXXXX   .....XooXXXXXXXX ....XXXX",
"XX...XXX....XXXXXX   .....XXoXXXXXXX   .....XooXXXXXXXX ....XXXX",
"XX..XXX.XXXXXXXX  ...XXoooooX       ....XXoooXXXXXXX   ...XXXXXX",
"..XXX..XXXXXX   ..XXXoooXXXX ........XXXooXXXXXXXX  ....XXXXXXXX",
"..XXX..XXXXXX   ..XXXoooXXXX ........XXXooXXXXXXXX  ....XXXXXXXX",
"..XX.XXXXX   ...XXXXoXX     XXXXXXXXXoooXXXXXXXX  ..XXXXXXXXXXXX",
"XX..X     ...XXXooooX  XXXXXXXXXXXXXXXXXXXXXXXX ..XXXXXXXXXXXXXX",
"XX..X     ...XXXooooX  XXXXXXXXXXXXXXXXXXXXXXXX ..XXXXXXXXXXXXXX",
"..XXXXXXXXXXXXXXXXXX XXXXXXXXXXXXXXXXXXXXXXXX  .XXXXXXXXXXXXXXXX",
"..XXXXXXXXXXXXXXXXXX XXXXXXXXXXXXXXXXXXXXXXXX  .XXXXXXXXXXXXXXXX"
};
