/* XPM */
static char *c9ccde2d52a24b2bd0af3391daa73d53IYbp6bCmGWHVF0pC[] = {
/* columns rows colors chars-per-pixel */
"40 40 5 1 ",
"  c #ECB848",
". c #F9C962",
"X c #FFD579",
"o c #FCDE9F",
"O c #FFEEC9",
/* pixels */
"XXXXXXXXXXX XXXXXXooXXXXXXXX XXXXXX.....",
"XXXXXXXX   .XXXXooXXXXXX    XXXX...   XX",
"XXXXXXX ...XXXXoXXX     XXX.....   XXX.X",
"XXXXX  .XXXXXooXX  ....XXX...   XXXXXX.X",
"XXXX ..XXXXooX   ..XXXXXX..  XXXXX....XX",
"XXX ..XXXXoXX ...XXXXXO... XXXXX....XXXX",
"XXX .XXXooXX ...XXXXXX... XXXXX...XooXXX",
"XX ..XXXoXX ..XXXXXXX..  XXXX...XXoXXXXX",
"XX .XXXoXX ..XXXXXXX.. XXXXX...XooXXXXXX",
"X ..XXoXX ..XXXXXXX.. XXXXX..XXoXXX...XX",
"X .XXXoX ...XXXXoX... XXXXX.XXoXXX..XXXX",
" .XXXoXX ..XXXXoXX.. XXXXX..XoXXX..XXXXX",
"XXXXXoX ..XXXXoXX.. XXXXX..XoXXX..XXXXX ",
"XXXXoXX ..XXXoXX.. XXXXXX.XoXXXX.XXXXX X",
"XXXoXXO .XXXXoXX.. XXXXX..XXXXX..XXXXX X",
"XXoXXX ..XXXXoX.. XXXXX..XXXXXX..XXXX XX",
"XXoXXX ..XXXXXX. XXXXXX.XXXXXX..XXXXX XX",
"XoXXXX .XXXXXX.. XXXXX..XXXXX..XXXXX .XX",
"XoXXX ..XXXXXXX. XXXX..XXXXXX.OXXXXX .XX",
"XXXX ..XXXXXXX..XXXX..XXXXXX..XXXXX ..XX",
"XXXX..XXXX..XX..XXXXXXXXXXX..XXXXXX ..XX",
"XXXX..XXXX.XXX..XXXXXXOXXXX..XXXXX ..XXX",
"XXX..XXXX.XXX...XXXXXXXXXX..XXXXXX ..XXX",
"XX..XXXXX.XXo..XXXXXXXXXXX..XXXXX ...XXX",
"X..XXXXX.XXoX..XXXXXXXXXX..XoXXXX ..XXXX",
"XXXXXXX.XXoX...XXXXXXXXXX..XoXXXO ..XoXX",
"XXXXXX.XXooX..XXXXXX XXX..XoXXXX ..XXoXX",
"XXXXX.XXXoXX..XXXXX XXX..XooXXXX ..XoXXX",
"XXXX.XXXoXXX.XXXXX XXX..XooXXXX ..XoXXXX",
"XXXX.XXoXXX.XXXXX XX...XoXXXXX ...oXXX.X",
"XXX.XXoXXO..XXXXX X...XoXXXX  ..XoXXXX.X",
"XXX.XoXXX..XXXX  ...XXoXXX  ...XoXXXX .X",
"XX.XooXX.XXXXX X...XooXX  ....XoXXXX .XX",
"XX.XXXX.XXXXX ...XooXXXX ...XooXXXX ..XX",
"X..XX..XXXX  ...XoXXXX  ...XoXXXXX ..XXX",
"X.XX.XXXXX ..XoooX    ...XooXXXX  ..XXXX",
".XX.XXXX  .XXooXX .....XXoXXXXX ...XXXXX",
".X.XXX  ..XXoX   XXXXXXooXXXXX .XXXXXXXX",
"X.X   ..XXooX XXXXXXXXXXXXXXX .XXXXXXXXX",
".XXXXXXXXXXX XXXXXXXXXXXXXXX .XXXXXXXXXX"
};
