/* XPM */
static char *result[] = {
/* columns rows colors chars-per-pixel */
"64 64 5 1 ",
"  c #5A5A5A",
". c #888888",
"X c gray66",
"o c #E6E6E6",
"O c None",
/* pixels */
"OOOOOOOOOOOOOOOOOOOOOOOOOOOOOOOOOOOOOOOOOOOOOOOOOOOOOOOOOOOOOOOO",
"OOOOOOOOOOOOOOOOOOOOOOOOOOOOOOOOOOOOOOOOOOOOOOOOOOOOOOOOOOOOOOOO",
"OOOOOOOOOOOOOOOOOOOOOOOOOOOOOOOOOOOOOOOOOOOOOOOOOOOOOOOOOOOOOOOO",
"OOOOOOOOOOOOOOOOOOOOOOOOOOOOOOOOOOOOOOOOOOOOOOOOOOOOOOOOOOOOOOOO",
"OOOOOOOOOOOOOOOOOOOOOOOOOOOOOOOOOOOOOOOOOOOOOOOOOOOOOOOOOOOOOOOO",
"OOOOOOOOOOOOOOOOOOOOOOOOOOOOOOOOOOOOOOOOOOOOOOOOOOOOOOOOOOOOOOOO",
"OOOOOOOOOOOOOOOOOOOOOOOOOOOOOOOOOOOOOOOOOOOOOOOOOOOOOOOOOOOOOOOO",
"OOOOOOOOOoooooooOOOooooooooooooooooooooooooOOOOooooooooOOOOOOOOO",
"OOOOOOOOooooooooooooooooooooooooooooooooooooooooooooooooOOOOOOOO",
"OOOOOOOooooooooooooooooooooooooooooooooooooooooooooooooooOOOOOOO",
"OOOOOOooooooooooooooooooooooooooooooooooooooooooooooooooooOOOOOO",
"OOOOOOooooooooooooooooooooooooooooooooooooooooooooooooooooOOOOOO",
"OOOOOOooooooooooooooooooooooooooooooooooooooooooooooooooooOOOOOO",
"OOOOOOooooooooooooooooooooooooooooooooooooooooooooooooooooOOOOOO",
"OOOOOOoooooooooooooooooooooooooooo..oooo....oooooooooooooOOOOOOO",
"OOOOOOooooooooooooooooooooooooooooo.......ooooooooooooooooOOOOOO",
"OOOOOOoooooooooooooooooooooooooooooo....oooooooooooooooooOOOOOOO",
"OOOOOOooooooooooooooooooooooooooooooooooooooooooooooooooooOOOOOO",
"OOOOOOOooooooooooooooooooooooooooooooooooooooooooooooooooOOOOOOO",
"OOOOOOOooooooooooooooooooooooooooooooooooooooooooooooooooOOOOOOO",
"OOOOOOOooooooooooooooooooooooooooooooooooooooooooooooooooOOOOOOO",
"OOOOOOOooooooooooooooooooooooooooooooooooooooooooooooooooOOOOOOO",
"OOOOOOoooooooooooooooooooooooooooooooooooooooooooooooooooOOOOOOO",
"OOOOOOoooooooooooooooooooooooooooooooooooooooooooooooooooOOOOOOO",
"OOOOOOooooooooooooooooooooooooooooooooooooooooooooooooooooOOOOOO",
"OOOOOOooooo.ooooooooooooooooooooooooooooooooooooooooooooooOOOOOO",
"OOOOOOOoooo..ooooooooooooooooooooooooooooo.oooooooooooooooOOOOOO",
"OOOOOOoooooo.oooooooooooooooooooooooooooooo..oooooooooooooOOOOOO",
"OOOOOOoooooo.oooooooooooooooooooooooooooooo........oooooooOOOOOO",
"OOOOOOooooooo.ooooooooooooooooooooooooooooooo....oooooooooOOOOOO",
"OOOOOOoooooooo..ooooooooooooooooooooooooooooooooooooooooooOOOOOO",
"OOOOOOoooooooooo.oooooooooooooooooooooooooooooooooooooooooOOOOOO",
"OOOOOOooooooooooo.ooooooooooooooooooooooooooooooooooooooooOOOOOO",
"OOOOOO ooooooooooo.oooooooooooooooooooooooooooooooooooooo OOOOOO",
"OOOOOO  oooooooooo..oooooooooooooooooooooooooooooooooooo  OOOOOO",
"OOOOOO    oooooooo....oooooooooooooooooooooooooooooooo    OOOOOO",
"OOOOOO    XXXXXXXXX   XXXXXXXXXXXXXXXXXXXXXXXXXXXXXXXX    OOOOOO",
"OOOOOO    XXXXXXXXXXX  XXXXXXXXXXXXXXXXXXXXXXXXXXXXXXX   OOOOOOO",
"OOOOOO    XXXXXXXXXXX   XXXXXXXXXXXXXXXXXXXXXXXXXXXXXX   OOOOOOO",
"OOOOOO     XXXXXXXXXX XXXXXXXXXXXXXXXXXXXXXXXXXXXXXXXX    OOOOOO",
"OOOOOO     XXXXXXXXXX XXXXXXXXXXXXXXXXXXXXXXXXXXXXXXXX    OOOOOO",
"OOOOOO     XXXXXXXXXXX XXXXXXXXXXXXXXXXXXXXXXXXXXXXXXX    OOOOOO",
"OOOOOO     XXXXXXXXXXXX XXXXXXXXXXXXXXXXXXXXXXXXXXXXXX    OOOOOO",
"OOOOOO    XXXXXXXXXXXXX XXXXXXXXXXXXXXX..XXXXXXXXXXXXX    OOOOOO",
"OOOOOO    XXXXXXXXXXXXXXXXXXXXXXXXXXXX..XXXXXXXXXXXXX     OOOOOO",
"OOOOOO    XXXXXXXXXXXXXXXXXXXXXXXXXXXX.XXXXXXXXXXXXXX     OOOOOO",
"OOOOOO    XXXXXXXXXXXXXXXXXXXXXXXXXXXX.XXXXXXXXXXXXXXX    OOOOOO",
"OOOOOOO   XXXXXXXXXXXXXXXXXXXXXXXXXXXX.XXXXXXXXXXXXXXX    OOOOOO",
"OOOOOOO   XXXXXXXXXXXXXXXXXXXXXXXXXXXXX.XXXXXXXXXXXXXX    OOOOOO",
"OOOOOO    XXXXXXXXXXXXXXXXXXXXXXXXXXXX.XXXXXXXXXXXXXXX    OOOOOO",
"OOOOOO    XXXXXXXXXXXXXXXXXXXXXXXXXXXX.XX...XXXXXXXXXX    OOOOOO",
"OOOOOO    XXXXXXXXXXXXXXXXXXXXXXXXXX.....XXXXXXXXXXXXX    OOOOOO",
"OOOOOO    XXXXXXXXXXXXXXXXXXXXXXXXXX...XXXXXXXXXXXXXXX    OOOOOO",
"OOOOOOO   XXXXXXXXXXXXXXXXXXXXXXXXX.XXXXXXXXXXXXXXXXXX   OOOOOOO",
"OOOOOOO   XXXXXXXXXXXXXXXXXXXXXXXX.XXXXXXXXXXXXXXXXXXX   OOOOOOO",
"OOOOOOOO  XXXXXXXXXXXXXXXXXXXXXX..XXXXXXXXXXXXXXXXXXXX  OOOOOOOO",
"OOOOOOOOO XXXXXXXXXXXXXXXXXXXXXX..XXXXXXXXXXXXXXXXXXXX OOOOOOOOO",
"OOOOOOOOOOOOOOOOOOOOOOOOOOOOOOOOOOOOOOOOOOOOOOOOOOOOOOOOOOOOOOOO",
"OOOOOOOOOOOOOOOOOOOOOOOOOOOOOOOOOOOOOOOOOOOOOOOOOOOOOOOOOOOOOOOO",
"OOOOOOOOOOOOOOOOOOOOOOOOOOOOOOOOOOOOOOOOOOOOOOOOOOOOOOOOOOOOOOOO",
"OOOOOOOOOOOOOOOOOOOOOOOOOOOOOOOOOOOOOOOOOOOOOOOOOOOOOOOOOOOOOOOO",
"OOOOOOOOOOOOOOOOOOOOOOOOOOOOOOOOOOOOOOOOOOOOOOOOOOOOOOOOOOOOOOOO",
"OOOOOOOOOOOOOOOOOOOOOOOOOOOOOOOOOOOOOOOOOOOOOOOOOOOOOOOOOOOOOOOO",
"OOOOOOOOOOOOOOOOOOOOOOOOOOOOOOOOOOOOOOOOOOOOOOOOOOOOOOOOOOOOOOOO"
};
