/* XPM */
static char *_8c7d6a4fb754d16a874340c937dae52Kbre2GjcOhURATLq[] = {
/* columns rows colors chars-per-pixel */
"40 80 6 1 ",
"  c None",
". c #515050",
"X c #6E6F76",
"o c gray60",
"O c gray66",
"+ c gray",
/* pixels */
"      ............................      ",
"    ..++++++++++++++++++++++++++++..    ",
"  ..++++++++++++++++++++++++++++++++..  ",
"..++++++++++++++++++++++++++++++++++++. ",
".++++++++++++++++++++++++++++++++++++++.",
".++++++++++++++++++++++++++++++++++++++.",
".++++++++++++++++++++++++++++++++++++++.",
".++++++++++++++++++++++++++++++++++++++.",
".++++++++++++++++++++++++++++++++++++++.",
".+++++++++++++++++++++++++o++++++++++++.",
".+++++++++++++++++++++++++o++++++++++++.",
".+++++++++++++++++++++++++o++++++++++++.",
".++++++++++++++++++++++++++++++++o+++++.",
".++++++++++++++++++++++++++++++++o+++++.",
".++++++++++++++++++++++++++++++++++++++.",
".++++++++++++++++++++++++++++++++++++++.",
".++++++++++++++++++++++++++++++++++++++.",
".++++++++++++++++++++++++++++++++++++++.",
".++++++++++++++++++++++++++++++++++++++.",
".++++++++++++++++++++++++++++++++++++++.",
".++++++++++++++++++++++++++++++++++++++.",
".+++++++++++++o++++++++++++++++++++++++.",
".++++++++++++oo++++++++++++++++++++++++.",
".++++++++++++oo++++++++++++++++++++++++.",
".+++++++++++o++++++++++++++++++++++++++.",
".++++++++++++++++++++++++++++++++++++++.",
".++++++++++++++++++++++++++++++++++++++.",
".++++++++++++++++++++++++++++++++++++++.",
".+++o++++++++++++++++++++++++++++o+++++.",
".+++o++++++++++++++++++++++++++++++++++.",
".++++++++++++++++++++++++++++++++++++++.",
".++++++++++++++++++++++++++++++++++++++.",
".++++++++++++++++++++++++++++++++++++++.",
".++++++++++++++++++++++++++++++++++++++.",
".++++++++++++++++++++++++++++++++++++++.",
".++++++++++++++++++++++++++++++++++++++.",
".++++++++++++++++++++++++++++++++++++++.",
".+++++++++++++++++++++++o++++++++++++++.",
".O++++++++++++++++++++++.+++++++++++++X.",
".OOO++++++++++++++++++++++++++++++++XXX.",
".OOOOO++++oo++++++++++++++++ooo+++XXXXX.",
".OOOOOoooooooooooooooooooooooooooXXXXXX.",
".OOOOOoooooooooooooooooooooooooooXXXXXX.",
".OOOOOooooooooooooooooooooooooooooXXXXX.",
".OOOOOooooooooooooooooooooooooooooXXXXX.",
".OOOOOooooooooooooooooooooooooooooXXXXX.",
".OOOOOooooooooooooooooooooooooooooXXXXX.",
".OOOOOOoooooooo.ooooooooooooooooooXXXXX.",
".OOOOOOoooooooX.ooooooooooooooooooXXXXX.",
".OOOOOOooooooXX.ooooooooooooooooooXXXXX.",
".OOOOOoooooooXXoooooooooooooooooooXXXXX.",
".OOOOOoooooooXooooooooooooooooooooXXXXX.",
".OOOOOoooooooooooooooooooooooooooXXXXXX.",
".OOOOOooooooooooooooooooooooooooooXXXXX.",
".OOOOOOoooooooooooooooooooooooooooXXXXX.",
".OOOOOOoooooooooooooooooooooooooooXXXXX.",
".OOOOOooooooooooooooooooooooooooooXXXXX.",
".OOOOOooooooooooooooooooooooooooooXXXXX.",
".OOOOOooooooooooooooooooooooooooooXXXXX.",
".OOOOOooooooooooooooooooooooooooooXXXXX.",
".OOOOOooooooooooooooooooooooooooooXXXXX.",
".OOOOOooooooooooooooooooooooooooooXXXXX.",
".OOOOOooooooooooooooooooooooooooooXXXXX.",
".OOOOOooooooooooooooooooooooooooooXXXXX.",
".OOOOOooooooooooooooooooooooooooooXXXXX.",
".OOOOOooooooooooooooooooooooooooooXXXXX.",
".OOOOOooooooooooooooooooooooooooooXXXXX.",
".OOOOOooooooooooooooooooooooooooooXXXXX.",
".OOOOOooooooooooooooooooooooooooooXXXXX.",
".OOOOOoooooooooooooooooooooooooooXXXXXX.",
".OOOOOoooooooooooooooooooooooooooXXXXXX.",
".OOOOOoooooooooooooooooooooooooooXXXXXX.",
".OOOOOooooooooooooooooooooooooooooXXXXX.",
".OOOOOooooooooooooooooooooooooooooXXXXX.",
".OOOOOooooooooooooooooooooooooooooXXXXX.",
".OOOOOooooooooooooooooooooooooooooXXXXX.",
" .OOOOooooooooooooooooooooooooooooXXXX. ",
"  ..OOooooooooooooooooooooooooooooXX..  ",
"    ..oooooooooooooooooooooooooooo..    ",
"      ............................      "
};
